G75*
%MOIN*%
%OFA0B0*%
%FSLAX25Y25*%
%IPPOS*%
%LPD*%
%AMOC8*
5,1,8,0,0,1.08239X$1,22.5*
%
%ADD10C,0.13398*%
%ADD11R,0.05950X0.05950*%
%ADD12C,0.05950*%
%ADD13C,0.07800*%
%ADD14C,0.09400*%
%ADD15R,0.05600X0.09600*%
%ADD16R,0.14973X0.09461*%
%ADD17R,0.06343X0.06343*%
%ADD18C,0.04769*%
%ADD19R,0.05918X0.07099*%
%ADD20OC8,0.06800*%
%ADD21R,0.03162X0.02375*%
%ADD22R,0.07099X0.10249*%
%ADD23C,0.08674*%
%ADD24R,0.05918X0.06706*%
%ADD25R,0.02769X0.02178*%
%ADD26R,0.11824X0.06312*%
%ADD27R,0.05524X0.06312*%
%ADD28R,0.04762X0.04762*%
%ADD29R,0.04369X0.04369*%
D10*
X0016256Y0017254D03*
X0016256Y0254754D03*
X0351256Y0254754D03*
X0351256Y0017254D03*
D11*
X0042506Y0104065D03*
X0042506Y0149065D03*
X0042506Y0194065D03*
X0042506Y0239065D03*
D12*
X0042506Y0231191D03*
X0042506Y0223317D03*
X0042506Y0215443D03*
X0042506Y0186191D03*
X0042506Y0178317D03*
X0042506Y0170443D03*
X0042506Y0141191D03*
X0042506Y0133317D03*
X0042506Y0125443D03*
X0042506Y0096191D03*
X0042506Y0088317D03*
X0042506Y0080443D03*
D13*
X0073756Y0079754D03*
X0073756Y0089754D03*
X0073756Y0099754D03*
X0073756Y0109754D03*
X0073756Y0119754D03*
X0073756Y0129754D03*
X0073756Y0139754D03*
X0073756Y0149754D03*
X0073756Y0159754D03*
X0073756Y0169754D03*
X0073756Y0179754D03*
X0073756Y0189754D03*
X0073756Y0199754D03*
X0073756Y0209754D03*
X0073756Y0219754D03*
X0183756Y0219754D03*
X0183756Y0209754D03*
X0183756Y0199754D03*
X0183756Y0189754D03*
X0183756Y0179754D03*
X0183756Y0169754D03*
X0183756Y0159754D03*
X0183756Y0149754D03*
X0183756Y0139754D03*
X0183756Y0129754D03*
X0183756Y0119754D03*
X0183756Y0109754D03*
X0183756Y0099754D03*
X0183756Y0089754D03*
X0183756Y0079754D03*
X0183756Y0069754D03*
X0183756Y0059754D03*
X0183756Y0049754D03*
X0183756Y0039754D03*
X0183756Y0029754D03*
X0073756Y0029754D03*
X0073756Y0039754D03*
X0073756Y0049754D03*
X0073756Y0059754D03*
X0073756Y0069754D03*
D14*
X0055567Y0055304D02*
X0055567Y0046704D01*
X0048056Y0032106D02*
X0039456Y0032106D01*
X0031945Y0046704D02*
X0031945Y0055304D01*
D15*
X0102156Y0060054D03*
X0111256Y0060054D03*
X0120356Y0060054D03*
X0140906Y0060054D03*
X0150006Y0060054D03*
X0159106Y0060054D03*
D16*
X0150006Y0084455D03*
X0111256Y0084455D03*
D17*
X0083756Y0079754D03*
X0083756Y0089754D03*
X0083756Y0099754D03*
X0083756Y0109754D03*
X0083756Y0119754D03*
X0083756Y0129754D03*
X0083756Y0139754D03*
X0083756Y0149754D03*
X0083756Y0159754D03*
X0083756Y0169754D03*
X0083756Y0179754D03*
X0083756Y0189754D03*
X0083756Y0199754D03*
X0083756Y0209754D03*
X0083756Y0219754D03*
X0173756Y0219754D03*
X0173756Y0209754D03*
X0173756Y0199754D03*
X0173756Y0189754D03*
X0173756Y0179754D03*
X0173756Y0169754D03*
X0173756Y0159754D03*
X0173756Y0149754D03*
X0173756Y0139754D03*
X0173756Y0129754D03*
X0173756Y0119754D03*
X0173756Y0109754D03*
X0173756Y0099754D03*
X0173756Y0089754D03*
X0173756Y0079754D03*
X0173756Y0069754D03*
X0173756Y0059754D03*
X0173756Y0049754D03*
X0173756Y0039754D03*
X0173756Y0029754D03*
X0083756Y0029754D03*
X0083756Y0039754D03*
X0083756Y0049754D03*
X0083756Y0059754D03*
X0083756Y0069754D03*
D18*
X0211043Y0150030D02*
X0215012Y0150030D01*
X0215012Y0154951D02*
X0211043Y0154951D01*
X0211043Y0159872D02*
X0215012Y0159872D01*
X0215012Y0164793D02*
X0211043Y0164793D01*
X0211043Y0169715D02*
X0215012Y0169715D01*
X0215012Y0174636D02*
X0211043Y0174636D01*
X0211043Y0179557D02*
X0215012Y0179557D01*
X0215012Y0184478D02*
X0211043Y0184478D01*
D19*
X0150193Y0146004D03*
X0142319Y0146004D03*
X0142319Y0132254D03*
X0150193Y0132254D03*
X0111443Y0132254D03*
X0103569Y0132254D03*
X0106443Y0038504D03*
X0113569Y0038504D03*
X0121443Y0038504D03*
X0137319Y0038504D03*
X0145193Y0038504D03*
X0152319Y0038504D03*
X0160193Y0038504D03*
X0098569Y0038504D03*
D20*
X0210006Y0206004D03*
X0220006Y0206004D03*
X0220006Y0216004D03*
X0210006Y0216004D03*
X0210006Y0226004D03*
X0220006Y0226004D03*
D21*
X0133018Y0198691D03*
X0133018Y0194754D03*
X0133018Y0190817D03*
X0121994Y0190817D03*
X0121994Y0194754D03*
X0121994Y0198691D03*
D22*
X0127506Y0194754D03*
D23*
X0246177Y0220512D03*
X0355232Y0043346D03*
D24*
X0149996Y0104754D03*
X0142516Y0104754D03*
X0142516Y0118504D03*
X0149996Y0118504D03*
D25*
X0318470Y0247165D03*
X0318470Y0249724D03*
X0318470Y0252283D03*
X0318470Y0254843D03*
X0326541Y0254843D03*
X0326541Y0252283D03*
X0326541Y0249724D03*
X0326541Y0247165D03*
D26*
X0145006Y0228622D03*
X0115006Y0228622D03*
D27*
X0119337Y0218386D03*
X0110675Y0218386D03*
X0140675Y0218386D03*
X0149337Y0218386D03*
D28*
X0103756Y0204754D03*
X0102506Y0049754D03*
X0141256Y0049754D03*
X0350006Y0234754D03*
D29*
X0148756Y0194754D03*
M02*
