G75*
%MOIN*%
%OFA0B0*%
%FSLAX25Y25*%
%IPPOS*%
%LPD*%
%AMOC8*
5,1,8,0,0,1.08239X$1,22.5*
%
%ADD10C,0.00000*%
D10*
X0037850Y0030531D02*
X0037850Y0033681D01*
X0049661Y0033681D01*
X0049661Y0030531D01*
X0037850Y0030531D01*
X0033520Y0045098D02*
X0030370Y0045098D01*
X0030370Y0056909D01*
X0033520Y0056909D01*
X0033520Y0045098D01*
X0053598Y0044114D02*
X0053598Y0057894D01*
X0057535Y0057894D01*
X0057535Y0044114D01*
X0053598Y0044114D01*
X0302506Y0226004D02*
X0335006Y0226004D01*
X0335146Y0226006D01*
X0335286Y0226012D01*
X0335426Y0226022D01*
X0335566Y0226035D01*
X0335705Y0226053D01*
X0335844Y0226075D01*
X0335981Y0226100D01*
X0336119Y0226129D01*
X0336255Y0226162D01*
X0336390Y0226199D01*
X0336524Y0226240D01*
X0336657Y0226285D01*
X0336789Y0226333D01*
X0336919Y0226385D01*
X0337048Y0226440D01*
X0337175Y0226499D01*
X0337301Y0226562D01*
X0337425Y0226628D01*
X0337546Y0226697D01*
X0337666Y0226770D01*
X0337784Y0226847D01*
X0337899Y0226926D01*
X0338013Y0227009D01*
X0338123Y0227095D01*
X0338232Y0227184D01*
X0338338Y0227276D01*
X0338441Y0227371D01*
X0338542Y0227468D01*
X0338639Y0227569D01*
X0338734Y0227672D01*
X0338826Y0227778D01*
X0338915Y0227887D01*
X0339001Y0227997D01*
X0339084Y0228111D01*
X0339163Y0228226D01*
X0339240Y0228344D01*
X0339313Y0228464D01*
X0339382Y0228585D01*
X0339448Y0228709D01*
X0339511Y0228835D01*
X0339570Y0228962D01*
X0339625Y0229091D01*
X0339677Y0229221D01*
X0339725Y0229353D01*
X0339770Y0229486D01*
X0339811Y0229620D01*
X0339848Y0229755D01*
X0339881Y0229891D01*
X0339910Y0230029D01*
X0339935Y0230166D01*
X0339957Y0230305D01*
X0339975Y0230444D01*
X0339988Y0230584D01*
X0339998Y0230724D01*
X0340004Y0230864D01*
X0340006Y0231004D01*
X0340004Y0231144D01*
X0339998Y0231284D01*
X0339988Y0231424D01*
X0339975Y0231564D01*
X0339957Y0231703D01*
X0339935Y0231842D01*
X0339910Y0231979D01*
X0339881Y0232117D01*
X0339848Y0232253D01*
X0339811Y0232388D01*
X0339770Y0232522D01*
X0339725Y0232655D01*
X0339677Y0232787D01*
X0339625Y0232917D01*
X0339570Y0233046D01*
X0339511Y0233173D01*
X0339448Y0233299D01*
X0339382Y0233423D01*
X0339313Y0233544D01*
X0339240Y0233664D01*
X0339163Y0233782D01*
X0339084Y0233897D01*
X0339001Y0234011D01*
X0338915Y0234121D01*
X0338826Y0234230D01*
X0338734Y0234336D01*
X0338639Y0234439D01*
X0338542Y0234540D01*
X0338441Y0234637D01*
X0338338Y0234732D01*
X0338232Y0234824D01*
X0338123Y0234913D01*
X0338013Y0234999D01*
X0337899Y0235082D01*
X0337784Y0235161D01*
X0337666Y0235238D01*
X0337546Y0235311D01*
X0337425Y0235380D01*
X0337301Y0235446D01*
X0337175Y0235509D01*
X0337048Y0235568D01*
X0336919Y0235623D01*
X0336789Y0235675D01*
X0336657Y0235723D01*
X0336524Y0235768D01*
X0336390Y0235809D01*
X0336255Y0235846D01*
X0336119Y0235879D01*
X0335981Y0235908D01*
X0335844Y0235933D01*
X0335705Y0235955D01*
X0335566Y0235973D01*
X0335426Y0235986D01*
X0335286Y0235996D01*
X0335146Y0236002D01*
X0335006Y0236004D01*
X0306256Y0236004D01*
X0306147Y0235984D01*
X0306037Y0235968D01*
X0305926Y0235956D01*
X0305815Y0235947D01*
X0305704Y0235943D01*
X0305593Y0235942D01*
X0305481Y0235946D01*
X0305370Y0235953D01*
X0305260Y0235964D01*
X0305149Y0235979D01*
X0305040Y0235997D01*
X0304931Y0236020D01*
X0304823Y0236046D01*
X0304716Y0236076D01*
X0304610Y0236110D01*
X0304505Y0236148D01*
X0304402Y0236189D01*
X0304300Y0236233D01*
X0304200Y0236282D01*
X0304101Y0236333D01*
X0304004Y0236388D01*
X0303910Y0236447D01*
X0303817Y0236509D01*
X0303727Y0236573D01*
X0303639Y0236641D01*
X0303553Y0236712D01*
X0303470Y0236786D01*
X0303390Y0236863D01*
X0303312Y0236943D01*
X0303237Y0237025D01*
X0303165Y0237110D01*
X0303096Y0237197D01*
X0303030Y0237287D01*
X0302968Y0237379D01*
X0302908Y0237473D01*
X0302852Y0237569D01*
X0302799Y0237667D01*
X0302750Y0237767D01*
X0302704Y0237868D01*
X0302662Y0237971D01*
X0302623Y0238075D01*
X0302588Y0238181D01*
X0302557Y0238288D01*
X0302530Y0238395D01*
X0302506Y0238504D01*
X0302506Y0259754D01*
X0302504Y0259894D01*
X0302498Y0260034D01*
X0302488Y0260174D01*
X0302475Y0260314D01*
X0302457Y0260453D01*
X0302435Y0260592D01*
X0302410Y0260729D01*
X0302381Y0260867D01*
X0302348Y0261003D01*
X0302311Y0261138D01*
X0302270Y0261272D01*
X0302225Y0261405D01*
X0302177Y0261537D01*
X0302125Y0261667D01*
X0302070Y0261796D01*
X0302011Y0261923D01*
X0301948Y0262049D01*
X0301882Y0262173D01*
X0301813Y0262294D01*
X0301740Y0262414D01*
X0301663Y0262532D01*
X0301584Y0262647D01*
X0301501Y0262761D01*
X0301415Y0262871D01*
X0301326Y0262980D01*
X0301234Y0263086D01*
X0301139Y0263189D01*
X0301042Y0263290D01*
X0300941Y0263387D01*
X0300838Y0263482D01*
X0300732Y0263574D01*
X0300623Y0263663D01*
X0300513Y0263749D01*
X0300399Y0263832D01*
X0300284Y0263911D01*
X0300166Y0263988D01*
X0300046Y0264061D01*
X0299925Y0264130D01*
X0299801Y0264196D01*
X0299675Y0264259D01*
X0299548Y0264318D01*
X0299419Y0264373D01*
X0299289Y0264425D01*
X0299157Y0264473D01*
X0299024Y0264518D01*
X0298890Y0264559D01*
X0298755Y0264596D01*
X0298619Y0264629D01*
X0298481Y0264658D01*
X0298344Y0264683D01*
X0298205Y0264705D01*
X0298066Y0264723D01*
X0297926Y0264736D01*
X0297786Y0264746D01*
X0297646Y0264752D01*
X0297506Y0264754D01*
X0297366Y0264752D01*
X0297226Y0264746D01*
X0297086Y0264736D01*
X0296946Y0264723D01*
X0296807Y0264705D01*
X0296668Y0264683D01*
X0296531Y0264658D01*
X0296393Y0264629D01*
X0296257Y0264596D01*
X0296122Y0264559D01*
X0295988Y0264518D01*
X0295855Y0264473D01*
X0295723Y0264425D01*
X0295593Y0264373D01*
X0295464Y0264318D01*
X0295337Y0264259D01*
X0295211Y0264196D01*
X0295087Y0264130D01*
X0294966Y0264061D01*
X0294846Y0263988D01*
X0294728Y0263911D01*
X0294613Y0263832D01*
X0294499Y0263749D01*
X0294389Y0263663D01*
X0294280Y0263574D01*
X0294174Y0263482D01*
X0294071Y0263387D01*
X0293970Y0263290D01*
X0293873Y0263189D01*
X0293778Y0263086D01*
X0293686Y0262980D01*
X0293597Y0262871D01*
X0293511Y0262761D01*
X0293428Y0262647D01*
X0293349Y0262532D01*
X0293272Y0262414D01*
X0293199Y0262294D01*
X0293130Y0262173D01*
X0293064Y0262049D01*
X0293001Y0261923D01*
X0292942Y0261796D01*
X0292887Y0261667D01*
X0292835Y0261537D01*
X0292787Y0261405D01*
X0292742Y0261272D01*
X0292701Y0261138D01*
X0292664Y0261003D01*
X0292631Y0260867D01*
X0292602Y0260729D01*
X0292577Y0260592D01*
X0292555Y0260453D01*
X0292537Y0260314D01*
X0292524Y0260174D01*
X0292514Y0260034D01*
X0292508Y0259894D01*
X0292506Y0259754D01*
X0292506Y0236004D01*
X0292478Y0235790D01*
X0292455Y0235576D01*
X0292438Y0235361D01*
X0292426Y0235145D01*
X0292419Y0234930D01*
X0292417Y0234714D01*
X0292421Y0234498D01*
X0292430Y0234283D01*
X0292444Y0234068D01*
X0292463Y0233853D01*
X0292488Y0233639D01*
X0292517Y0233425D01*
X0292553Y0233212D01*
X0292593Y0233000D01*
X0292638Y0232789D01*
X0292689Y0232580D01*
X0292744Y0232371D01*
X0292805Y0232164D01*
X0292871Y0231959D01*
X0292941Y0231755D01*
X0293017Y0231553D01*
X0293097Y0231353D01*
X0293183Y0231155D01*
X0293273Y0230959D01*
X0293368Y0230765D01*
X0293468Y0230574D01*
X0293572Y0230385D01*
X0293681Y0230199D01*
X0293794Y0230016D01*
X0293912Y0229835D01*
X0294034Y0229657D01*
X0294161Y0229483D01*
X0294292Y0229311D01*
X0294427Y0229143D01*
X0294565Y0228978D01*
X0294708Y0228816D01*
X0294855Y0228658D01*
X0295006Y0228504D01*
X0295160Y0228353D01*
X0295318Y0228206D01*
X0295480Y0228063D01*
X0295645Y0227925D01*
X0295813Y0227790D01*
X0295985Y0227659D01*
X0296159Y0227532D01*
X0296337Y0227410D01*
X0296518Y0227292D01*
X0296701Y0227179D01*
X0296887Y0227070D01*
X0297076Y0226966D01*
X0297267Y0226866D01*
X0297461Y0226771D01*
X0297657Y0226681D01*
X0297855Y0226595D01*
X0298055Y0226515D01*
X0298257Y0226439D01*
X0298461Y0226369D01*
X0298666Y0226303D01*
X0298873Y0226242D01*
X0299082Y0226187D01*
X0299291Y0226136D01*
X0299502Y0226091D01*
X0299714Y0226051D01*
X0299927Y0226015D01*
X0300141Y0225986D01*
X0300355Y0225961D01*
X0300570Y0225942D01*
X0300785Y0225928D01*
X0301000Y0225919D01*
X0301216Y0225915D01*
X0301432Y0225917D01*
X0301647Y0225924D01*
X0301863Y0225936D01*
X0302078Y0225953D01*
X0302292Y0225976D01*
X0302506Y0226004D01*
M02*
