G75*
%MOIN*%
%OFA0B0*%
%FSLAX25Y25*%
%IPPOS*%
%LPD*%
%AMOC8*
5,1,8,0,0,1.08239X$1,22.5*
%
%ADD10R,0.05150X0.05150*%
%ADD11C,0.05150*%
%ADD12C,0.07000*%
%ADD13C,0.08600*%
%ADD14R,0.05543X0.05543*%
%ADD15C,0.03969*%
%ADD16OC8,0.06000*%
%ADD17C,0.02400*%
%ADD18R,0.03962X0.03962*%
%ADD19C,0.00600*%
%ADD20C,0.01200*%
%ADD21R,0.03569X0.03569*%
D10*
X0042506Y0104065D03*
X0042506Y0149065D03*
X0042506Y0194065D03*
X0042506Y0239065D03*
D11*
X0042506Y0231191D03*
X0042506Y0223317D03*
X0042506Y0215443D03*
X0042506Y0186191D03*
X0042506Y0178317D03*
X0042506Y0170443D03*
X0042506Y0141191D03*
X0042506Y0133317D03*
X0042506Y0125443D03*
X0042506Y0096191D03*
X0042506Y0088317D03*
X0042506Y0080443D03*
D12*
X0073756Y0079754D03*
X0073756Y0089754D03*
X0073756Y0099754D03*
X0073756Y0109754D03*
X0073756Y0119754D03*
X0073756Y0129754D03*
X0073756Y0139754D03*
X0073756Y0149754D03*
X0073756Y0159754D03*
X0073756Y0169754D03*
X0073756Y0179754D03*
X0073756Y0189754D03*
X0073756Y0199754D03*
X0073756Y0209754D03*
X0073756Y0219754D03*
X0183756Y0219754D03*
X0183756Y0209754D03*
X0183756Y0199754D03*
X0183756Y0189754D03*
X0183756Y0179754D03*
X0183756Y0169754D03*
X0183756Y0159754D03*
X0183756Y0149754D03*
X0183756Y0139754D03*
X0183756Y0129754D03*
X0183756Y0119754D03*
X0183756Y0109754D03*
X0183756Y0099754D03*
X0183756Y0089754D03*
X0183756Y0079754D03*
X0183756Y0069754D03*
X0183756Y0059754D03*
X0183756Y0049754D03*
X0183756Y0039754D03*
X0183756Y0029754D03*
X0073756Y0029754D03*
X0073756Y0039754D03*
X0073756Y0049754D03*
X0073756Y0059754D03*
X0073756Y0069754D03*
D13*
X0055567Y0055304D02*
X0055567Y0046704D01*
X0048056Y0032106D02*
X0039456Y0032106D01*
X0031945Y0046704D02*
X0031945Y0055304D01*
D14*
X0083756Y0059754D03*
X0083756Y0069754D03*
X0083756Y0079754D03*
X0083756Y0089754D03*
X0083756Y0099754D03*
X0083756Y0109754D03*
X0083756Y0119754D03*
X0083756Y0129754D03*
X0083756Y0139754D03*
X0083756Y0149754D03*
X0083756Y0159754D03*
X0083756Y0169754D03*
X0083756Y0179754D03*
X0083756Y0189754D03*
X0083756Y0199754D03*
X0083756Y0209754D03*
X0083756Y0219754D03*
X0173756Y0219754D03*
X0173756Y0209754D03*
X0173756Y0199754D03*
X0173756Y0189754D03*
X0173756Y0179754D03*
X0173756Y0169754D03*
X0173756Y0159754D03*
X0173756Y0149754D03*
X0173756Y0139754D03*
X0173756Y0129754D03*
X0173756Y0119754D03*
X0173756Y0109754D03*
X0173756Y0099754D03*
X0173756Y0089754D03*
X0173756Y0079754D03*
X0173756Y0069754D03*
X0173756Y0059754D03*
X0173756Y0049754D03*
X0173756Y0039754D03*
X0173756Y0029754D03*
X0083756Y0029754D03*
X0083756Y0039754D03*
X0083756Y0049754D03*
D15*
X0211043Y0150030D02*
X0215012Y0150030D01*
X0215012Y0154951D02*
X0211043Y0154951D01*
X0211043Y0159872D02*
X0215012Y0159872D01*
X0215012Y0164793D02*
X0211043Y0164793D01*
X0211043Y0169715D02*
X0215012Y0169715D01*
X0215012Y0174636D02*
X0211043Y0174636D01*
X0211043Y0179557D02*
X0215012Y0179557D01*
X0215012Y0184478D02*
X0211043Y0184478D01*
D16*
X0210006Y0206004D03*
X0220006Y0206004D03*
X0220006Y0216004D03*
X0210006Y0216004D03*
X0210006Y0226004D03*
X0220006Y0226004D03*
D17*
X0183756Y0219754D02*
X0173756Y0219754D01*
X0173756Y0209754D02*
X0183756Y0209754D01*
X0183756Y0199754D02*
X0173756Y0199754D01*
X0173756Y0189754D02*
X0183756Y0189754D01*
X0183756Y0179754D02*
X0173756Y0179754D01*
X0173756Y0169754D02*
X0183756Y0169754D01*
X0183756Y0159754D02*
X0173756Y0159754D01*
X0173756Y0149754D02*
X0183756Y0149754D01*
X0183756Y0139754D02*
X0173756Y0139754D01*
X0173756Y0129754D02*
X0183756Y0129754D01*
X0183756Y0119754D02*
X0173756Y0119754D01*
X0173756Y0109754D02*
X0183756Y0109754D01*
X0183756Y0099754D02*
X0173756Y0099754D01*
X0173756Y0089754D02*
X0183756Y0089754D01*
X0183756Y0079754D02*
X0173756Y0079754D01*
X0173756Y0069754D02*
X0183756Y0069754D01*
X0183756Y0059754D02*
X0173756Y0059754D01*
X0173756Y0049754D02*
X0183756Y0049754D01*
X0183756Y0039754D02*
X0173756Y0039754D01*
X0173756Y0029754D02*
X0183756Y0029754D01*
X0141256Y0049754D02*
X0141256Y0008504D01*
X0141256Y0007254D01*
X0043756Y0007254D01*
X0043756Y0032106D01*
X0043756Y0034754D01*
X0032506Y0046004D01*
X0032506Y0050443D01*
X0031945Y0051004D01*
X0042506Y0051004D01*
X0042506Y0080443D01*
X0042506Y0079754D01*
X0031256Y0079754D01*
X0031256Y0125443D01*
X0031256Y0170443D01*
X0031256Y0215443D01*
X0042506Y0215443D01*
X0073756Y0219754D02*
X0083756Y0219754D01*
X0083756Y0209754D02*
X0073756Y0209754D01*
X0073756Y0199754D02*
X0083756Y0199754D01*
X0083756Y0189754D02*
X0073756Y0189754D01*
X0073756Y0179754D02*
X0083756Y0179754D01*
X0083756Y0169754D02*
X0073756Y0169754D01*
X0073756Y0159754D02*
X0083756Y0159754D01*
X0083756Y0149754D02*
X0073756Y0149754D01*
X0073756Y0139754D02*
X0083756Y0139754D01*
X0083756Y0129754D02*
X0073756Y0129754D01*
X0073756Y0119754D02*
X0095006Y0119754D01*
X0095006Y0049754D01*
X0102506Y0049754D01*
X0141256Y0049754D01*
X0083756Y0049754D02*
X0073756Y0049754D01*
X0073756Y0059754D02*
X0083756Y0059754D01*
X0083756Y0069754D02*
X0073756Y0069754D01*
X0073756Y0079754D02*
X0083756Y0079754D01*
X0083756Y0089754D02*
X0073756Y0089754D01*
X0073756Y0099754D02*
X0063756Y0099754D01*
X0063756Y0133504D01*
X0042506Y0133504D01*
X0042506Y0133317D01*
X0042506Y0125443D02*
X0031256Y0125443D01*
X0073756Y0119754D02*
X0083756Y0119754D01*
X0083756Y0109754D02*
X0073756Y0109754D01*
X0073756Y0099754D02*
X0083756Y0099754D01*
X0083756Y0039754D02*
X0073756Y0039754D01*
X0073756Y0029754D02*
X0083756Y0029754D01*
X0042506Y0170443D02*
X0031256Y0170443D01*
D18*
X0103756Y0204754D03*
X0102506Y0049754D03*
X0141256Y0049754D03*
X0350006Y0234754D03*
D19*
X0025006Y0219754D02*
X0025006Y0004754D01*
X0226256Y0004754D01*
X0226256Y0206004D01*
X0222506Y0209754D01*
X0222337Y0209754D01*
X0224306Y0207785D01*
X0224306Y0206304D01*
X0220306Y0206304D01*
X0220306Y0205704D01*
X0224306Y0205704D01*
X0224306Y0204223D01*
X0221787Y0201704D01*
X0220306Y0201704D01*
X0220306Y0205704D01*
X0219706Y0205704D01*
X0219706Y0201704D01*
X0218225Y0201704D01*
X0215706Y0204223D01*
X0215706Y0205704D01*
X0219706Y0205704D01*
X0219706Y0206304D01*
X0215706Y0206304D01*
X0215706Y0207785D01*
X0217675Y0209754D01*
X0217506Y0209754D01*
X0215006Y0207254D01*
X0215006Y0191004D01*
X0202506Y0191004D01*
X0202506Y0012254D01*
X0145006Y0012254D01*
X0145006Y0067254D01*
X0098756Y0067254D01*
X0098756Y0124754D01*
X0067506Y0124754D01*
X0067506Y0113504D01*
X0071311Y0113504D01*
X0072881Y0114154D01*
X0074631Y0114154D01*
X0076200Y0113504D01*
X0090006Y0113504D01*
X0090006Y0012254D01*
X0052506Y0012254D01*
X0052506Y0028704D01*
X0052327Y0028458D01*
X0051704Y0027835D01*
X0050991Y0027317D01*
X0050206Y0026917D01*
X0049367Y0026644D01*
X0048497Y0026506D01*
X0044056Y0026506D01*
X0044056Y0031806D01*
X0043456Y0031806D01*
X0043456Y0026506D01*
X0039015Y0026506D01*
X0038145Y0026644D01*
X0037306Y0026917D01*
X0036521Y0027317D01*
X0035808Y0027835D01*
X0035184Y0028458D01*
X0034666Y0029171D01*
X0034266Y0029957D01*
X0033994Y0030795D01*
X0033856Y0031666D01*
X0033856Y0031806D01*
X0043456Y0031806D01*
X0043456Y0032406D01*
X0033856Y0032406D01*
X0033856Y0032547D01*
X0033994Y0033418D01*
X0034266Y0034256D01*
X0034666Y0035041D01*
X0035184Y0035754D01*
X0035808Y0036378D01*
X0036521Y0036896D01*
X0037306Y0037296D01*
X0038145Y0037568D01*
X0039015Y0037706D01*
X0043456Y0037706D01*
X0043456Y0032406D01*
X0044056Y0032406D01*
X0044056Y0037706D01*
X0048497Y0037706D01*
X0049367Y0037568D01*
X0050206Y0037296D01*
X0050991Y0036896D01*
X0051704Y0036378D01*
X0052327Y0035754D01*
X0052506Y0035509D01*
X0052506Y0042411D01*
X0051159Y0043758D01*
X0050367Y0045670D01*
X0050367Y0056338D01*
X0051159Y0058249D01*
X0052506Y0059597D01*
X0052506Y0131404D01*
X0045475Y0131404D01*
X0045452Y0131349D01*
X0044655Y0130552D01*
X0044956Y0130251D01*
X0044956Y0130251D01*
X0046753Y0128454D01*
X0046753Y0128454D01*
X0047456Y0127751D01*
X0047456Y0100507D01*
X0046753Y0099804D01*
X0045280Y0098331D01*
X0045452Y0098159D01*
X0045981Y0096882D01*
X0045981Y0095500D01*
X0045452Y0094223D01*
X0044474Y0093245D01*
X0043197Y0092716D01*
X0041815Y0092716D01*
X0040538Y0093245D01*
X0039560Y0094223D01*
X0039031Y0095500D01*
X0039031Y0096882D01*
X0039560Y0098159D01*
X0040538Y0099137D01*
X0041815Y0099666D01*
X0043197Y0099666D01*
X0043214Y0099659D01*
X0044145Y0100590D01*
X0039558Y0100590D01*
X0039031Y0101117D01*
X0039031Y0107013D01*
X0039558Y0107540D01*
X0045056Y0107540D01*
X0045056Y0122513D01*
X0044976Y0122433D01*
X0044341Y0122009D01*
X0043636Y0121717D01*
X0042888Y0121568D01*
X0042806Y0121568D01*
X0042806Y0125143D01*
X0042206Y0125143D01*
X0042206Y0121568D01*
X0042124Y0121568D01*
X0041376Y0121717D01*
X0040670Y0122009D01*
X0040036Y0122433D01*
X0039496Y0122973D01*
X0039072Y0123608D01*
X0038780Y0124313D01*
X0038631Y0125061D01*
X0038631Y0125143D01*
X0042206Y0125143D01*
X0042206Y0125743D01*
X0038631Y0125743D01*
X0038631Y0125825D01*
X0038780Y0126573D01*
X0039072Y0127278D01*
X0039496Y0127913D01*
X0040036Y0128453D01*
X0040187Y0128554D01*
X0039509Y0128554D01*
X0038259Y0129804D01*
X0037556Y0130507D01*
X0037556Y0144001D01*
X0038806Y0145251D01*
X0039352Y0145797D01*
X0039031Y0146117D01*
X0039031Y0152013D01*
X0039558Y0152540D01*
X0045453Y0152540D01*
X0045981Y0152013D01*
X0045981Y0146117D01*
X0045817Y0145954D01*
X0052506Y0145954D01*
X0052506Y0173554D01*
X0052009Y0173554D01*
X0048446Y0177117D01*
X0045770Y0177117D01*
X0045452Y0176349D01*
X0044474Y0175371D01*
X0043197Y0174842D01*
X0041815Y0174842D01*
X0040538Y0175371D01*
X0039560Y0176349D01*
X0039031Y0177626D01*
X0039031Y0179008D01*
X0039560Y0180285D01*
X0040538Y0181263D01*
X0041815Y0181792D01*
X0043197Y0181792D01*
X0044474Y0181263D01*
X0045452Y0180285D01*
X0045770Y0179517D01*
X0049440Y0179517D01*
X0050143Y0178814D01*
X0052506Y0176451D01*
X0052506Y0219754D01*
X0025006Y0219754D01*
X0025006Y0219514D02*
X0052506Y0219514D01*
X0052506Y0218915D02*
X0044249Y0218915D01*
X0044341Y0218877D02*
X0043636Y0219169D01*
X0042888Y0219318D01*
X0042806Y0219318D01*
X0042806Y0215743D01*
X0046381Y0215743D01*
X0046381Y0215825D01*
X0046232Y0216573D01*
X0045940Y0217278D01*
X0045516Y0217913D01*
X0044976Y0218453D01*
X0044341Y0218877D01*
X0045112Y0218317D02*
X0052506Y0218317D01*
X0052506Y0217718D02*
X0045646Y0217718D01*
X0046005Y0217120D02*
X0052506Y0217120D01*
X0052506Y0216521D02*
X0046242Y0216521D01*
X0046361Y0215922D02*
X0052506Y0215922D01*
X0052506Y0215324D02*
X0042806Y0215324D01*
X0042806Y0215143D02*
X0042806Y0215743D01*
X0042206Y0215743D01*
X0042206Y0219318D01*
X0042124Y0219318D01*
X0041376Y0219169D01*
X0040670Y0218877D01*
X0040036Y0218453D01*
X0039496Y0217913D01*
X0039072Y0217278D01*
X0038780Y0216573D01*
X0038631Y0215825D01*
X0038631Y0215743D01*
X0042206Y0215743D01*
X0042206Y0215143D01*
X0038631Y0215143D01*
X0038631Y0215061D01*
X0038780Y0214313D01*
X0039072Y0213608D01*
X0039496Y0212973D01*
X0040036Y0212433D01*
X0040670Y0212009D01*
X0041376Y0211717D01*
X0042124Y0211568D01*
X0042206Y0211568D01*
X0042206Y0215143D01*
X0042806Y0215143D01*
X0046381Y0215143D01*
X0046381Y0215061D01*
X0046232Y0214313D01*
X0045940Y0213608D01*
X0045516Y0212973D01*
X0044976Y0212433D01*
X0044341Y0212009D01*
X0043636Y0211717D01*
X0042888Y0211568D01*
X0042806Y0211568D01*
X0042806Y0215143D01*
X0042806Y0214725D02*
X0042206Y0214725D01*
X0042206Y0214127D02*
X0042806Y0214127D01*
X0042806Y0213528D02*
X0042206Y0213528D01*
X0042206Y0212930D02*
X0042806Y0212930D01*
X0042806Y0212331D02*
X0042206Y0212331D01*
X0042206Y0211733D02*
X0042806Y0211733D01*
X0043674Y0211733D02*
X0052506Y0211733D01*
X0052506Y0212331D02*
X0044824Y0212331D01*
X0045473Y0212930D02*
X0052506Y0212930D01*
X0052506Y0213528D02*
X0045887Y0213528D01*
X0046155Y0214127D02*
X0052506Y0214127D01*
X0052506Y0214725D02*
X0046314Y0214725D01*
X0042806Y0215922D02*
X0042206Y0215922D01*
X0042206Y0215324D02*
X0025006Y0215324D01*
X0025006Y0215922D02*
X0038651Y0215922D01*
X0038770Y0216521D02*
X0025006Y0216521D01*
X0025006Y0217120D02*
X0039006Y0217120D01*
X0039366Y0217718D02*
X0025006Y0217718D01*
X0025006Y0218317D02*
X0039900Y0218317D01*
X0040763Y0218915D02*
X0025006Y0218915D01*
X0025006Y0214725D02*
X0038698Y0214725D01*
X0038857Y0214127D02*
X0025006Y0214127D01*
X0025006Y0213528D02*
X0039125Y0213528D01*
X0039539Y0212930D02*
X0025006Y0212930D01*
X0025006Y0212331D02*
X0040188Y0212331D01*
X0041337Y0211733D02*
X0025006Y0211733D01*
X0025006Y0211134D02*
X0052506Y0211134D01*
X0052506Y0210536D02*
X0025006Y0210536D01*
X0025006Y0209937D02*
X0052506Y0209937D01*
X0052506Y0209339D02*
X0025006Y0209339D01*
X0025006Y0208740D02*
X0052506Y0208740D01*
X0052506Y0208142D02*
X0025006Y0208142D01*
X0025006Y0207543D02*
X0052506Y0207543D01*
X0052506Y0206945D02*
X0025006Y0206945D01*
X0025006Y0206346D02*
X0052506Y0206346D01*
X0052506Y0205748D02*
X0025006Y0205748D01*
X0025006Y0205149D02*
X0052506Y0205149D01*
X0052506Y0204551D02*
X0025006Y0204551D01*
X0025006Y0203952D02*
X0052506Y0203952D01*
X0052506Y0203354D02*
X0025006Y0203354D01*
X0025006Y0202755D02*
X0052506Y0202755D01*
X0052506Y0202157D02*
X0025006Y0202157D01*
X0025006Y0201558D02*
X0052506Y0201558D01*
X0052506Y0200960D02*
X0025006Y0200960D01*
X0025006Y0200361D02*
X0052506Y0200361D01*
X0052506Y0199763D02*
X0025006Y0199763D01*
X0025006Y0199164D02*
X0052506Y0199164D01*
X0052506Y0198566D02*
X0025006Y0198566D01*
X0025006Y0197967D02*
X0052506Y0197967D01*
X0052506Y0197369D02*
X0045625Y0197369D01*
X0045453Y0197540D02*
X0039558Y0197540D01*
X0039031Y0197013D01*
X0039031Y0191117D01*
X0039558Y0190590D01*
X0045453Y0190590D01*
X0045981Y0191117D01*
X0045981Y0197013D01*
X0045453Y0197540D01*
X0045981Y0196770D02*
X0052506Y0196770D01*
X0052506Y0196172D02*
X0045981Y0196172D01*
X0045981Y0195573D02*
X0052506Y0195573D01*
X0052506Y0194975D02*
X0045981Y0194975D01*
X0045981Y0194376D02*
X0052506Y0194376D01*
X0052506Y0193778D02*
X0045981Y0193778D01*
X0045981Y0193179D02*
X0052506Y0193179D01*
X0052506Y0192581D02*
X0045981Y0192581D01*
X0045981Y0191982D02*
X0052506Y0191982D01*
X0052506Y0191384D02*
X0045981Y0191384D01*
X0045648Y0190785D02*
X0052506Y0190785D01*
X0052506Y0190186D02*
X0025006Y0190186D01*
X0025006Y0189588D02*
X0041627Y0189588D01*
X0041815Y0189666D02*
X0040538Y0189137D01*
X0039560Y0188159D01*
X0039031Y0186882D01*
X0039031Y0185500D01*
X0039560Y0184223D01*
X0040538Y0183245D01*
X0041815Y0182716D01*
X0043197Y0182716D01*
X0044474Y0183245D01*
X0045452Y0184223D01*
X0045981Y0185500D01*
X0045981Y0186882D01*
X0045452Y0188159D01*
X0044474Y0189137D01*
X0043197Y0189666D01*
X0041815Y0189666D01*
X0043385Y0189588D02*
X0052506Y0189588D01*
X0052506Y0188989D02*
X0044621Y0188989D01*
X0045220Y0188391D02*
X0052506Y0188391D01*
X0052506Y0187792D02*
X0045604Y0187792D01*
X0045852Y0187194D02*
X0052506Y0187194D01*
X0052506Y0186595D02*
X0045981Y0186595D01*
X0045981Y0185997D02*
X0052506Y0185997D01*
X0052506Y0185398D02*
X0045939Y0185398D01*
X0045691Y0184800D02*
X0052506Y0184800D01*
X0052506Y0184201D02*
X0045430Y0184201D01*
X0044832Y0183603D02*
X0052506Y0183603D01*
X0052506Y0183004D02*
X0043893Y0183004D01*
X0044528Y0181209D02*
X0052506Y0181209D01*
X0052506Y0181807D02*
X0025006Y0181807D01*
X0025006Y0181209D02*
X0040484Y0181209D01*
X0039885Y0180610D02*
X0025006Y0180610D01*
X0025006Y0180012D02*
X0039447Y0180012D01*
X0039199Y0179413D02*
X0025006Y0179413D01*
X0025006Y0178815D02*
X0039031Y0178815D01*
X0039031Y0178216D02*
X0025006Y0178216D01*
X0025006Y0177618D02*
X0039034Y0177618D01*
X0039282Y0177019D02*
X0025006Y0177019D01*
X0025006Y0176421D02*
X0039530Y0176421D01*
X0040087Y0175822D02*
X0025006Y0175822D01*
X0025006Y0175224D02*
X0040894Y0175224D01*
X0041376Y0174169D02*
X0040670Y0173877D01*
X0040036Y0173453D01*
X0039496Y0172913D01*
X0039072Y0172278D01*
X0038780Y0171573D01*
X0038631Y0170825D01*
X0038631Y0170743D01*
X0042206Y0170743D01*
X0042206Y0174318D01*
X0042124Y0174318D01*
X0041376Y0174169D01*
X0041033Y0174027D02*
X0025006Y0174027D01*
X0025006Y0174625D02*
X0050938Y0174625D01*
X0051536Y0174027D02*
X0043979Y0174027D01*
X0043636Y0174169D02*
X0042888Y0174318D01*
X0042806Y0174318D01*
X0042806Y0170743D01*
X0046381Y0170743D01*
X0046381Y0170825D01*
X0046232Y0171573D01*
X0045940Y0172278D01*
X0045516Y0172913D01*
X0044976Y0173453D01*
X0044341Y0173877D01*
X0043636Y0174169D01*
X0042806Y0174027D02*
X0042206Y0174027D01*
X0042206Y0173428D02*
X0042806Y0173428D01*
X0042806Y0172830D02*
X0042206Y0172830D01*
X0042206Y0172231D02*
X0042806Y0172231D01*
X0042806Y0171633D02*
X0042206Y0171633D01*
X0042206Y0171034D02*
X0042806Y0171034D01*
X0042806Y0170743D02*
X0042206Y0170743D01*
X0042206Y0170143D01*
X0038631Y0170143D01*
X0038631Y0170061D01*
X0038780Y0169313D01*
X0039072Y0168608D01*
X0039496Y0167973D01*
X0040036Y0167433D01*
X0040670Y0167009D01*
X0041376Y0166717D01*
X0042124Y0166568D01*
X0042206Y0166568D01*
X0042206Y0170143D01*
X0042806Y0170143D01*
X0042806Y0170743D01*
X0042806Y0170436D02*
X0052506Y0170436D01*
X0052506Y0171034D02*
X0046339Y0171034D01*
X0046207Y0171633D02*
X0052506Y0171633D01*
X0052506Y0172231D02*
X0045959Y0172231D01*
X0045571Y0172830D02*
X0052506Y0172830D01*
X0052506Y0173428D02*
X0045000Y0173428D01*
X0044118Y0175224D02*
X0050339Y0175224D01*
X0049741Y0175822D02*
X0044925Y0175822D01*
X0045482Y0176421D02*
X0049142Y0176421D01*
X0048544Y0177019D02*
X0045729Y0177019D01*
X0045565Y0180012D02*
X0052506Y0180012D01*
X0052506Y0180610D02*
X0045127Y0180610D01*
X0042506Y0178317D02*
X0048943Y0178317D01*
X0052506Y0174754D01*
X0103756Y0174754D01*
X0103756Y0204754D01*
X0148756Y0194754D02*
X0167506Y0194754D01*
X0167506Y0184754D01*
X0206256Y0184754D01*
X0206256Y0179754D01*
X0206256Y0179557D01*
X0213028Y0179557D01*
X0220006Y0179557D01*
X0218296Y0179365D02*
X0213220Y0179365D01*
X0213220Y0179749D01*
X0218296Y0179749D01*
X0218296Y0179881D01*
X0218170Y0180515D01*
X0217922Y0181113D01*
X0217563Y0181651D01*
X0217105Y0182108D01*
X0216875Y0182262D01*
X0217457Y0182845D01*
X0217896Y0183905D01*
X0217896Y0185052D01*
X0217457Y0186112D01*
X0216646Y0186923D01*
X0215586Y0187363D01*
X0210470Y0187363D01*
X0209410Y0186923D01*
X0208598Y0186112D01*
X0208159Y0185052D01*
X0208159Y0183905D01*
X0208598Y0182845D01*
X0209180Y0182262D01*
X0208950Y0182108D01*
X0208492Y0181651D01*
X0208133Y0181113D01*
X0207885Y0180515D01*
X0207759Y0179881D01*
X0207759Y0179749D01*
X0212835Y0179749D01*
X0212835Y0179365D01*
X0207759Y0179365D01*
X0207759Y0179234D01*
X0207885Y0178599D01*
X0208133Y0178001D01*
X0208492Y0177463D01*
X0208950Y0177006D01*
X0209180Y0176852D01*
X0208598Y0176270D01*
X0208159Y0175210D01*
X0208159Y0174062D01*
X0208598Y0173002D01*
X0209410Y0172191D01*
X0209447Y0172175D01*
X0209410Y0172160D01*
X0208598Y0171348D01*
X0208159Y0170288D01*
X0208159Y0169141D01*
X0208598Y0168081D01*
X0209410Y0167269D01*
X0209447Y0167254D01*
X0209410Y0167238D01*
X0208598Y0166427D01*
X0208159Y0165367D01*
X0208159Y0164220D01*
X0208598Y0163160D01*
X0209410Y0162348D01*
X0209447Y0162333D01*
X0209410Y0162317D01*
X0208598Y0161506D01*
X0208159Y0160446D01*
X0208159Y0159298D01*
X0208598Y0158238D01*
X0209410Y0157427D01*
X0209447Y0157411D01*
X0209410Y0157396D01*
X0208598Y0156585D01*
X0208159Y0155524D01*
X0208159Y0154377D01*
X0208598Y0153317D01*
X0209410Y0152506D01*
X0209447Y0152490D01*
X0209410Y0152475D01*
X0208598Y0151663D01*
X0208159Y0150603D01*
X0208159Y0149456D01*
X0208598Y0148396D01*
X0209410Y0147584D01*
X0210470Y0147145D01*
X0215586Y0147145D01*
X0216646Y0147584D01*
X0217457Y0148396D01*
X0217896Y0149456D01*
X0217896Y0150603D01*
X0217457Y0151663D01*
X0216646Y0152475D01*
X0216608Y0152490D01*
X0216646Y0152506D01*
X0217457Y0153317D01*
X0217896Y0154377D01*
X0217896Y0155524D01*
X0217457Y0156585D01*
X0216646Y0157396D01*
X0216608Y0157411D01*
X0216646Y0157427D01*
X0217457Y0158238D01*
X0217896Y0159298D01*
X0217896Y0160446D01*
X0217457Y0161506D01*
X0216646Y0162317D01*
X0216608Y0162333D01*
X0216646Y0162348D01*
X0217457Y0163160D01*
X0217896Y0164220D01*
X0217896Y0165367D01*
X0217457Y0166427D01*
X0216646Y0167238D01*
X0216608Y0167254D01*
X0216646Y0167269D01*
X0217457Y0168081D01*
X0217896Y0169141D01*
X0217896Y0170288D01*
X0217457Y0171348D01*
X0216646Y0172160D01*
X0216608Y0172175D01*
X0216646Y0172191D01*
X0217457Y0173002D01*
X0217896Y0174062D01*
X0217896Y0175210D01*
X0217457Y0176270D01*
X0216875Y0176852D01*
X0217105Y0177006D01*
X0217563Y0177463D01*
X0217922Y0178001D01*
X0218170Y0178599D01*
X0218296Y0179234D01*
X0218296Y0179365D01*
X0218213Y0178815D02*
X0226256Y0178815D01*
X0226256Y0179413D02*
X0213220Y0179413D01*
X0213220Y0179749D02*
X0213220Y0181594D01*
X0212835Y0181594D01*
X0212835Y0179749D01*
X0213220Y0179749D01*
X0213220Y0180012D02*
X0212835Y0180012D01*
X0212835Y0180610D02*
X0213220Y0180610D01*
X0213220Y0181209D02*
X0212835Y0181209D01*
X0212835Y0179413D02*
X0202506Y0179413D01*
X0202506Y0178815D02*
X0207842Y0178815D01*
X0208044Y0178216D02*
X0202506Y0178216D01*
X0202506Y0177618D02*
X0208389Y0177618D01*
X0208937Y0177019D02*
X0202506Y0177019D01*
X0202506Y0176421D02*
X0208749Y0176421D01*
X0208413Y0175822D02*
X0202506Y0175822D01*
X0202506Y0175224D02*
X0208165Y0175224D01*
X0208159Y0174625D02*
X0202506Y0174625D01*
X0202506Y0174027D02*
X0208174Y0174027D01*
X0208422Y0173428D02*
X0202506Y0173428D01*
X0202506Y0172830D02*
X0208771Y0172830D01*
X0209369Y0172231D02*
X0202506Y0172231D01*
X0202506Y0171633D02*
X0208882Y0171633D01*
X0208468Y0171034D02*
X0202506Y0171034D01*
X0202506Y0170436D02*
X0208220Y0170436D01*
X0208159Y0169837D02*
X0202506Y0169837D01*
X0202506Y0169239D02*
X0208159Y0169239D01*
X0208366Y0168640D02*
X0202506Y0168640D01*
X0202506Y0168042D02*
X0208637Y0168042D01*
X0209236Y0167443D02*
X0202506Y0167443D01*
X0202506Y0166845D02*
X0209016Y0166845D01*
X0208523Y0166246D02*
X0202506Y0166246D01*
X0202506Y0165648D02*
X0208275Y0165648D01*
X0208159Y0165049D02*
X0202506Y0165049D01*
X0202506Y0164451D02*
X0208159Y0164451D01*
X0208311Y0163852D02*
X0202506Y0163852D01*
X0202506Y0163253D02*
X0208559Y0163253D01*
X0209103Y0162655D02*
X0202506Y0162655D01*
X0202506Y0162056D02*
X0209149Y0162056D01*
X0208578Y0161458D02*
X0202506Y0161458D01*
X0202506Y0160859D02*
X0208330Y0160859D01*
X0208159Y0160261D02*
X0202506Y0160261D01*
X0202506Y0159662D02*
X0208159Y0159662D01*
X0208256Y0159064D02*
X0202506Y0159064D01*
X0202506Y0158465D02*
X0208504Y0158465D01*
X0208970Y0157867D02*
X0202506Y0157867D01*
X0202506Y0157268D02*
X0209282Y0157268D01*
X0208683Y0156670D02*
X0202506Y0156670D01*
X0202506Y0156071D02*
X0208386Y0156071D01*
X0208159Y0155473D02*
X0202506Y0155473D01*
X0202506Y0154874D02*
X0208159Y0154874D01*
X0208201Y0154276D02*
X0202506Y0154276D01*
X0202506Y0153677D02*
X0208449Y0153677D01*
X0208836Y0153079D02*
X0202506Y0153079D01*
X0202506Y0152480D02*
X0209423Y0152480D01*
X0208817Y0151882D02*
X0202506Y0151882D01*
X0202506Y0151283D02*
X0208441Y0151283D01*
X0208193Y0150685D02*
X0202506Y0150685D01*
X0202506Y0150086D02*
X0208159Y0150086D01*
X0208159Y0149488D02*
X0202506Y0149488D01*
X0202506Y0148889D02*
X0208394Y0148889D01*
X0208703Y0148291D02*
X0202506Y0148291D01*
X0202506Y0147692D02*
X0209302Y0147692D01*
X0202506Y0147094D02*
X0226256Y0147094D01*
X0226256Y0147692D02*
X0216753Y0147692D01*
X0217352Y0148291D02*
X0226256Y0148291D01*
X0226256Y0148889D02*
X0217661Y0148889D01*
X0217896Y0149488D02*
X0226256Y0149488D01*
X0226256Y0150086D02*
X0217896Y0150086D01*
X0217862Y0150685D02*
X0226256Y0150685D01*
X0226256Y0151283D02*
X0217614Y0151283D01*
X0217238Y0151882D02*
X0226256Y0151882D01*
X0226256Y0152480D02*
X0216632Y0152480D01*
X0217219Y0153079D02*
X0226256Y0153079D01*
X0226256Y0153677D02*
X0217606Y0153677D01*
X0217854Y0154276D02*
X0226256Y0154276D01*
X0226256Y0154874D02*
X0217896Y0154874D01*
X0217896Y0155473D02*
X0226256Y0155473D01*
X0226256Y0156071D02*
X0217670Y0156071D01*
X0217372Y0156670D02*
X0226256Y0156670D01*
X0226256Y0157268D02*
X0216773Y0157268D01*
X0217086Y0157867D02*
X0226256Y0157867D01*
X0226256Y0158465D02*
X0217551Y0158465D01*
X0217799Y0159064D02*
X0226256Y0159064D01*
X0226256Y0159662D02*
X0217896Y0159662D01*
X0217896Y0160261D02*
X0226256Y0160261D01*
X0226256Y0160859D02*
X0217725Y0160859D01*
X0217477Y0161458D02*
X0226256Y0161458D01*
X0226256Y0162056D02*
X0216906Y0162056D01*
X0216952Y0162655D02*
X0226256Y0162655D01*
X0226256Y0163253D02*
X0217496Y0163253D01*
X0217744Y0163852D02*
X0226256Y0163852D01*
X0226256Y0164451D02*
X0217896Y0164451D01*
X0217896Y0165049D02*
X0226256Y0165049D01*
X0226256Y0165648D02*
X0217780Y0165648D01*
X0217532Y0166246D02*
X0226256Y0166246D01*
X0226256Y0166845D02*
X0217039Y0166845D01*
X0216819Y0167443D02*
X0226256Y0167443D01*
X0226256Y0168042D02*
X0217418Y0168042D01*
X0217689Y0168640D02*
X0226256Y0168640D01*
X0226256Y0169239D02*
X0217896Y0169239D01*
X0217896Y0169837D02*
X0226256Y0169837D01*
X0226256Y0170436D02*
X0217835Y0170436D01*
X0217587Y0171034D02*
X0226256Y0171034D01*
X0226256Y0171633D02*
X0217173Y0171633D01*
X0216686Y0172231D02*
X0226256Y0172231D01*
X0226256Y0172830D02*
X0217285Y0172830D01*
X0217633Y0173428D02*
X0226256Y0173428D01*
X0226256Y0174027D02*
X0217881Y0174027D01*
X0217896Y0174625D02*
X0226256Y0174625D01*
X0226256Y0175224D02*
X0217890Y0175224D01*
X0217642Y0175822D02*
X0226256Y0175822D01*
X0226256Y0176421D02*
X0217306Y0176421D01*
X0217119Y0177019D02*
X0226256Y0177019D01*
X0226256Y0177618D02*
X0217666Y0177618D01*
X0218011Y0178216D02*
X0226256Y0178216D01*
X0226256Y0180012D02*
X0218270Y0180012D01*
X0218130Y0180610D02*
X0226256Y0180610D01*
X0226256Y0181209D02*
X0217858Y0181209D01*
X0217406Y0181807D02*
X0226256Y0181807D01*
X0226256Y0182406D02*
X0217018Y0182406D01*
X0217523Y0183004D02*
X0226256Y0183004D01*
X0226256Y0183603D02*
X0217771Y0183603D01*
X0217896Y0184201D02*
X0226256Y0184201D01*
X0226256Y0184800D02*
X0217896Y0184800D01*
X0217753Y0185398D02*
X0226256Y0185398D01*
X0226256Y0185997D02*
X0217505Y0185997D01*
X0216974Y0186595D02*
X0226256Y0186595D01*
X0226256Y0187194D02*
X0215993Y0187194D01*
X0215006Y0191384D02*
X0226256Y0191384D01*
X0226256Y0191982D02*
X0215006Y0191982D01*
X0215006Y0192581D02*
X0226256Y0192581D01*
X0226256Y0193179D02*
X0215006Y0193179D01*
X0215006Y0193778D02*
X0226256Y0193778D01*
X0226256Y0194376D02*
X0215006Y0194376D01*
X0215006Y0194975D02*
X0226256Y0194975D01*
X0226256Y0195573D02*
X0215006Y0195573D01*
X0215006Y0196172D02*
X0226256Y0196172D01*
X0226256Y0196770D02*
X0215006Y0196770D01*
X0215006Y0197369D02*
X0226256Y0197369D01*
X0226256Y0197967D02*
X0215006Y0197967D01*
X0215006Y0198566D02*
X0226256Y0198566D01*
X0226256Y0199164D02*
X0215006Y0199164D01*
X0215006Y0199763D02*
X0226256Y0199763D01*
X0226256Y0200361D02*
X0215006Y0200361D01*
X0215006Y0200960D02*
X0226256Y0200960D01*
X0226256Y0201558D02*
X0215006Y0201558D01*
X0215006Y0202157D02*
X0217772Y0202157D01*
X0217173Y0202755D02*
X0215006Y0202755D01*
X0215006Y0203354D02*
X0216575Y0203354D01*
X0215976Y0203952D02*
X0215006Y0203952D01*
X0215006Y0204551D02*
X0215706Y0204551D01*
X0215706Y0205149D02*
X0215006Y0205149D01*
X0215006Y0205748D02*
X0219706Y0205748D01*
X0219706Y0205149D02*
X0220306Y0205149D01*
X0220306Y0204551D02*
X0219706Y0204551D01*
X0219706Y0203952D02*
X0220306Y0203952D01*
X0220306Y0203354D02*
X0219706Y0203354D01*
X0219706Y0202755D02*
X0220306Y0202755D01*
X0220306Y0202157D02*
X0219706Y0202157D01*
X0222240Y0202157D02*
X0226256Y0202157D01*
X0226256Y0202755D02*
X0222838Y0202755D01*
X0223437Y0203354D02*
X0226256Y0203354D01*
X0226256Y0203952D02*
X0224035Y0203952D01*
X0224306Y0204551D02*
X0226256Y0204551D01*
X0226256Y0205149D02*
X0224306Y0205149D01*
X0224306Y0206346D02*
X0225914Y0206346D01*
X0226256Y0205748D02*
X0220306Y0205748D01*
X0224306Y0206945D02*
X0225315Y0206945D01*
X0224717Y0207543D02*
X0224306Y0207543D01*
X0224118Y0208142D02*
X0223949Y0208142D01*
X0223520Y0208740D02*
X0223351Y0208740D01*
X0222921Y0209339D02*
X0222752Y0209339D01*
X0217260Y0209339D02*
X0217091Y0209339D01*
X0216661Y0208740D02*
X0216492Y0208740D01*
X0216063Y0208142D02*
X0215894Y0208142D01*
X0215706Y0207543D02*
X0215295Y0207543D01*
X0215006Y0206945D02*
X0215706Y0206945D01*
X0215706Y0206346D02*
X0215006Y0206346D01*
X0226256Y0190785D02*
X0202506Y0190785D01*
X0202506Y0190186D02*
X0226256Y0190186D01*
X0226256Y0189588D02*
X0202506Y0189588D01*
X0202506Y0188989D02*
X0226256Y0188989D01*
X0226256Y0188391D02*
X0202506Y0188391D01*
X0202506Y0187792D02*
X0226256Y0187792D01*
X0210062Y0187194D02*
X0202506Y0187194D01*
X0202506Y0186595D02*
X0209081Y0186595D01*
X0208550Y0185997D02*
X0202506Y0185997D01*
X0202506Y0185398D02*
X0208303Y0185398D01*
X0208159Y0184800D02*
X0202506Y0184800D01*
X0202506Y0184201D02*
X0208159Y0184201D01*
X0208284Y0183603D02*
X0202506Y0183603D01*
X0202506Y0183004D02*
X0208532Y0183004D01*
X0209037Y0182406D02*
X0202506Y0182406D01*
X0202506Y0181807D02*
X0208649Y0181807D01*
X0208197Y0181209D02*
X0202506Y0181209D01*
X0202506Y0180610D02*
X0207925Y0180610D01*
X0207785Y0180012D02*
X0202506Y0180012D01*
X0202506Y0146495D02*
X0226256Y0146495D01*
X0226256Y0145897D02*
X0202506Y0145897D01*
X0202506Y0145298D02*
X0226256Y0145298D01*
X0226256Y0144700D02*
X0202506Y0144700D01*
X0202506Y0144101D02*
X0226256Y0144101D01*
X0226256Y0143503D02*
X0202506Y0143503D01*
X0202506Y0142904D02*
X0226256Y0142904D01*
X0226256Y0142306D02*
X0202506Y0142306D01*
X0202506Y0141707D02*
X0226256Y0141707D01*
X0226256Y0141109D02*
X0202506Y0141109D01*
X0202506Y0140510D02*
X0226256Y0140510D01*
X0226256Y0139912D02*
X0202506Y0139912D01*
X0202506Y0139313D02*
X0226256Y0139313D01*
X0226256Y0138715D02*
X0202506Y0138715D01*
X0202506Y0138116D02*
X0226256Y0138116D01*
X0226256Y0137517D02*
X0202506Y0137517D01*
X0202506Y0136919D02*
X0226256Y0136919D01*
X0226256Y0136320D02*
X0202506Y0136320D01*
X0202506Y0135722D02*
X0226256Y0135722D01*
X0226256Y0135123D02*
X0202506Y0135123D01*
X0202506Y0134525D02*
X0226256Y0134525D01*
X0226256Y0133926D02*
X0202506Y0133926D01*
X0202506Y0133328D02*
X0226256Y0133328D01*
X0226256Y0132729D02*
X0202506Y0132729D01*
X0202506Y0132131D02*
X0226256Y0132131D01*
X0226256Y0131532D02*
X0202506Y0131532D01*
X0202506Y0130934D02*
X0226256Y0130934D01*
X0226256Y0130335D02*
X0202506Y0130335D01*
X0202506Y0129737D02*
X0226256Y0129737D01*
X0226256Y0129138D02*
X0202506Y0129138D01*
X0202506Y0128540D02*
X0226256Y0128540D01*
X0226256Y0127941D02*
X0202506Y0127941D01*
X0202506Y0127343D02*
X0226256Y0127343D01*
X0226256Y0126744D02*
X0202506Y0126744D01*
X0202506Y0126146D02*
X0226256Y0126146D01*
X0226256Y0125547D02*
X0202506Y0125547D01*
X0202506Y0124949D02*
X0226256Y0124949D01*
X0226256Y0124350D02*
X0202506Y0124350D01*
X0202506Y0123752D02*
X0226256Y0123752D01*
X0226256Y0123153D02*
X0202506Y0123153D01*
X0202506Y0122555D02*
X0226256Y0122555D01*
X0226256Y0121956D02*
X0202506Y0121956D01*
X0202506Y0121358D02*
X0226256Y0121358D01*
X0226256Y0120759D02*
X0202506Y0120759D01*
X0202506Y0120161D02*
X0226256Y0120161D01*
X0226256Y0119562D02*
X0202506Y0119562D01*
X0202506Y0118964D02*
X0226256Y0118964D01*
X0226256Y0118365D02*
X0202506Y0118365D01*
X0202506Y0117767D02*
X0226256Y0117767D01*
X0226256Y0117168D02*
X0202506Y0117168D01*
X0202506Y0116570D02*
X0226256Y0116570D01*
X0226256Y0115971D02*
X0202506Y0115971D01*
X0202506Y0115373D02*
X0226256Y0115373D01*
X0226256Y0114774D02*
X0202506Y0114774D01*
X0202506Y0114176D02*
X0226256Y0114176D01*
X0226256Y0113577D02*
X0202506Y0113577D01*
X0202506Y0112979D02*
X0226256Y0112979D01*
X0226256Y0112380D02*
X0202506Y0112380D01*
X0202506Y0111782D02*
X0226256Y0111782D01*
X0226256Y0111183D02*
X0202506Y0111183D01*
X0202506Y0110584D02*
X0226256Y0110584D01*
X0226256Y0109986D02*
X0202506Y0109986D01*
X0202506Y0109387D02*
X0226256Y0109387D01*
X0226256Y0108789D02*
X0202506Y0108789D01*
X0202506Y0108190D02*
X0226256Y0108190D01*
X0226256Y0107592D02*
X0202506Y0107592D01*
X0202506Y0106993D02*
X0226256Y0106993D01*
X0226256Y0106395D02*
X0202506Y0106395D01*
X0202506Y0105796D02*
X0226256Y0105796D01*
X0226256Y0105198D02*
X0202506Y0105198D01*
X0202506Y0104599D02*
X0226256Y0104599D01*
X0226256Y0104001D02*
X0202506Y0104001D01*
X0202506Y0103402D02*
X0226256Y0103402D01*
X0226256Y0102804D02*
X0202506Y0102804D01*
X0202506Y0102205D02*
X0226256Y0102205D01*
X0226256Y0101607D02*
X0202506Y0101607D01*
X0202506Y0101008D02*
X0226256Y0101008D01*
X0226256Y0100410D02*
X0202506Y0100410D01*
X0202506Y0099811D02*
X0226256Y0099811D01*
X0226256Y0099213D02*
X0202506Y0099213D01*
X0202506Y0098614D02*
X0226256Y0098614D01*
X0226256Y0098016D02*
X0202506Y0098016D01*
X0202506Y0097417D02*
X0226256Y0097417D01*
X0226256Y0096819D02*
X0202506Y0096819D01*
X0202506Y0096220D02*
X0226256Y0096220D01*
X0226256Y0095622D02*
X0202506Y0095622D01*
X0202506Y0095023D02*
X0226256Y0095023D01*
X0226256Y0094425D02*
X0202506Y0094425D01*
X0202506Y0093826D02*
X0226256Y0093826D01*
X0226256Y0093228D02*
X0202506Y0093228D01*
X0202506Y0092629D02*
X0226256Y0092629D01*
X0226256Y0092031D02*
X0202506Y0092031D01*
X0202506Y0091432D02*
X0226256Y0091432D01*
X0226256Y0090834D02*
X0202506Y0090834D01*
X0202506Y0090235D02*
X0226256Y0090235D01*
X0226256Y0089637D02*
X0202506Y0089637D01*
X0202506Y0089038D02*
X0226256Y0089038D01*
X0226256Y0088440D02*
X0202506Y0088440D01*
X0202506Y0087841D02*
X0226256Y0087841D01*
X0226256Y0087243D02*
X0202506Y0087243D01*
X0202506Y0086644D02*
X0226256Y0086644D01*
X0226256Y0086046D02*
X0202506Y0086046D01*
X0202506Y0085447D02*
X0226256Y0085447D01*
X0226256Y0084848D02*
X0202506Y0084848D01*
X0202506Y0084250D02*
X0226256Y0084250D01*
X0226256Y0083651D02*
X0202506Y0083651D01*
X0202506Y0083053D02*
X0226256Y0083053D01*
X0226256Y0082454D02*
X0202506Y0082454D01*
X0202506Y0081856D02*
X0226256Y0081856D01*
X0226256Y0081257D02*
X0202506Y0081257D01*
X0202506Y0080659D02*
X0226256Y0080659D01*
X0226256Y0080060D02*
X0202506Y0080060D01*
X0202506Y0079462D02*
X0226256Y0079462D01*
X0226256Y0078863D02*
X0202506Y0078863D01*
X0202506Y0078265D02*
X0226256Y0078265D01*
X0226256Y0077666D02*
X0202506Y0077666D01*
X0202506Y0077068D02*
X0226256Y0077068D01*
X0226256Y0076469D02*
X0202506Y0076469D01*
X0202506Y0075871D02*
X0226256Y0075871D01*
X0226256Y0075272D02*
X0202506Y0075272D01*
X0202506Y0074674D02*
X0226256Y0074674D01*
X0226256Y0074075D02*
X0202506Y0074075D01*
X0202506Y0073477D02*
X0226256Y0073477D01*
X0226256Y0072878D02*
X0202506Y0072878D01*
X0202506Y0072280D02*
X0226256Y0072280D01*
X0226256Y0071681D02*
X0202506Y0071681D01*
X0202506Y0071083D02*
X0226256Y0071083D01*
X0226256Y0070484D02*
X0202506Y0070484D01*
X0202506Y0069886D02*
X0226256Y0069886D01*
X0226256Y0069287D02*
X0202506Y0069287D01*
X0202506Y0068689D02*
X0226256Y0068689D01*
X0226256Y0068090D02*
X0202506Y0068090D01*
X0202506Y0067492D02*
X0226256Y0067492D01*
X0226256Y0066893D02*
X0202506Y0066893D01*
X0202506Y0066295D02*
X0226256Y0066295D01*
X0226256Y0065696D02*
X0202506Y0065696D01*
X0202506Y0065098D02*
X0226256Y0065098D01*
X0226256Y0064499D02*
X0202506Y0064499D01*
X0202506Y0063901D02*
X0226256Y0063901D01*
X0226256Y0063302D02*
X0202506Y0063302D01*
X0202506Y0062704D02*
X0226256Y0062704D01*
X0226256Y0062105D02*
X0202506Y0062105D01*
X0202506Y0061507D02*
X0226256Y0061507D01*
X0226256Y0060908D02*
X0202506Y0060908D01*
X0202506Y0060310D02*
X0226256Y0060310D01*
X0226256Y0059711D02*
X0202506Y0059711D01*
X0202506Y0059113D02*
X0226256Y0059113D01*
X0226256Y0058514D02*
X0202506Y0058514D01*
X0202506Y0057915D02*
X0226256Y0057915D01*
X0226256Y0057317D02*
X0202506Y0057317D01*
X0202506Y0056718D02*
X0226256Y0056718D01*
X0226256Y0056120D02*
X0202506Y0056120D01*
X0202506Y0055521D02*
X0226256Y0055521D01*
X0226256Y0054923D02*
X0202506Y0054923D01*
X0202506Y0054324D02*
X0226256Y0054324D01*
X0226256Y0053726D02*
X0202506Y0053726D01*
X0202506Y0053127D02*
X0226256Y0053127D01*
X0226256Y0052529D02*
X0202506Y0052529D01*
X0202506Y0051930D02*
X0226256Y0051930D01*
X0226256Y0051332D02*
X0202506Y0051332D01*
X0202506Y0050733D02*
X0226256Y0050733D01*
X0226256Y0050135D02*
X0202506Y0050135D01*
X0202506Y0049536D02*
X0226256Y0049536D01*
X0226256Y0048938D02*
X0202506Y0048938D01*
X0202506Y0048339D02*
X0226256Y0048339D01*
X0226256Y0047741D02*
X0202506Y0047741D01*
X0202506Y0047142D02*
X0226256Y0047142D01*
X0226256Y0046544D02*
X0202506Y0046544D01*
X0202506Y0045945D02*
X0226256Y0045945D01*
X0226256Y0045347D02*
X0202506Y0045347D01*
X0202506Y0044748D02*
X0226256Y0044748D01*
X0226256Y0044150D02*
X0202506Y0044150D01*
X0202506Y0043551D02*
X0226256Y0043551D01*
X0226256Y0042953D02*
X0202506Y0042953D01*
X0202506Y0042354D02*
X0226256Y0042354D01*
X0226256Y0041756D02*
X0202506Y0041756D01*
X0202506Y0041157D02*
X0226256Y0041157D01*
X0226256Y0040559D02*
X0202506Y0040559D01*
X0202506Y0039960D02*
X0226256Y0039960D01*
X0226256Y0039362D02*
X0202506Y0039362D01*
X0202506Y0038763D02*
X0226256Y0038763D01*
X0226256Y0038165D02*
X0202506Y0038165D01*
X0202506Y0037566D02*
X0226256Y0037566D01*
X0226256Y0036968D02*
X0202506Y0036968D01*
X0202506Y0036369D02*
X0226256Y0036369D01*
X0226256Y0035771D02*
X0202506Y0035771D01*
X0202506Y0035172D02*
X0226256Y0035172D01*
X0226256Y0034574D02*
X0202506Y0034574D01*
X0202506Y0033975D02*
X0226256Y0033975D01*
X0226256Y0033377D02*
X0202506Y0033377D01*
X0202506Y0032778D02*
X0226256Y0032778D01*
X0226256Y0032180D02*
X0202506Y0032180D01*
X0202506Y0031581D02*
X0226256Y0031581D01*
X0226256Y0030982D02*
X0202506Y0030982D01*
X0202506Y0030384D02*
X0226256Y0030384D01*
X0226256Y0029785D02*
X0202506Y0029785D01*
X0202506Y0029187D02*
X0226256Y0029187D01*
X0226256Y0028588D02*
X0202506Y0028588D01*
X0202506Y0027990D02*
X0226256Y0027990D01*
X0226256Y0027391D02*
X0202506Y0027391D01*
X0202506Y0026793D02*
X0226256Y0026793D01*
X0226256Y0026194D02*
X0202506Y0026194D01*
X0202506Y0025596D02*
X0226256Y0025596D01*
X0226256Y0024997D02*
X0202506Y0024997D01*
X0202506Y0024399D02*
X0226256Y0024399D01*
X0226256Y0023800D02*
X0202506Y0023800D01*
X0202506Y0023202D02*
X0226256Y0023202D01*
X0226256Y0022603D02*
X0202506Y0022603D01*
X0202506Y0022005D02*
X0226256Y0022005D01*
X0226256Y0021406D02*
X0202506Y0021406D01*
X0202506Y0020808D02*
X0226256Y0020808D01*
X0226256Y0020209D02*
X0202506Y0020209D01*
X0202506Y0019611D02*
X0226256Y0019611D01*
X0226256Y0019012D02*
X0202506Y0019012D01*
X0202506Y0018414D02*
X0226256Y0018414D01*
X0226256Y0017815D02*
X0202506Y0017815D01*
X0202506Y0017217D02*
X0226256Y0017217D01*
X0226256Y0016618D02*
X0202506Y0016618D01*
X0202506Y0016020D02*
X0226256Y0016020D01*
X0226256Y0015421D02*
X0202506Y0015421D01*
X0202506Y0014823D02*
X0226256Y0014823D01*
X0226256Y0014224D02*
X0202506Y0014224D01*
X0202506Y0013626D02*
X0226256Y0013626D01*
X0226256Y0013027D02*
X0202506Y0013027D01*
X0202506Y0012429D02*
X0226256Y0012429D01*
X0226256Y0011830D02*
X0025006Y0011830D01*
X0025006Y0011232D02*
X0226256Y0011232D01*
X0226256Y0010633D02*
X0025006Y0010633D01*
X0025006Y0010035D02*
X0226256Y0010035D01*
X0226256Y0009436D02*
X0025006Y0009436D01*
X0025006Y0008838D02*
X0226256Y0008838D01*
X0226256Y0008239D02*
X0025006Y0008239D01*
X0025006Y0007641D02*
X0226256Y0007641D01*
X0226256Y0007042D02*
X0025006Y0007042D01*
X0025006Y0006444D02*
X0226256Y0006444D01*
X0226256Y0005845D02*
X0025006Y0005845D01*
X0025006Y0005246D02*
X0226256Y0005246D01*
X0145006Y0012429D02*
X0090006Y0012429D01*
X0090006Y0013027D02*
X0145006Y0013027D01*
X0145006Y0013626D02*
X0090006Y0013626D01*
X0090006Y0014224D02*
X0145006Y0014224D01*
X0145006Y0014823D02*
X0090006Y0014823D01*
X0090006Y0015421D02*
X0145006Y0015421D01*
X0145006Y0016020D02*
X0090006Y0016020D01*
X0090006Y0016618D02*
X0145006Y0016618D01*
X0145006Y0017217D02*
X0090006Y0017217D01*
X0090006Y0017815D02*
X0145006Y0017815D01*
X0145006Y0018414D02*
X0090006Y0018414D01*
X0090006Y0019012D02*
X0145006Y0019012D01*
X0145006Y0019611D02*
X0090006Y0019611D01*
X0090006Y0020209D02*
X0145006Y0020209D01*
X0145006Y0020808D02*
X0090006Y0020808D01*
X0090006Y0021406D02*
X0145006Y0021406D01*
X0145006Y0022005D02*
X0090006Y0022005D01*
X0090006Y0022603D02*
X0145006Y0022603D01*
X0145006Y0023202D02*
X0090006Y0023202D01*
X0090006Y0023800D02*
X0145006Y0023800D01*
X0145006Y0024399D02*
X0090006Y0024399D01*
X0090006Y0024997D02*
X0145006Y0024997D01*
X0145006Y0025596D02*
X0090006Y0025596D01*
X0090006Y0026194D02*
X0145006Y0026194D01*
X0145006Y0026793D02*
X0090006Y0026793D01*
X0090006Y0027391D02*
X0145006Y0027391D01*
X0145006Y0027990D02*
X0090006Y0027990D01*
X0090006Y0028588D02*
X0145006Y0028588D01*
X0145006Y0029187D02*
X0090006Y0029187D01*
X0090006Y0029785D02*
X0145006Y0029785D01*
X0145006Y0030384D02*
X0090006Y0030384D01*
X0090006Y0030982D02*
X0145006Y0030982D01*
X0145006Y0031581D02*
X0090006Y0031581D01*
X0090006Y0032180D02*
X0145006Y0032180D01*
X0145006Y0032778D02*
X0090006Y0032778D01*
X0090006Y0033377D02*
X0145006Y0033377D01*
X0145006Y0033975D02*
X0090006Y0033975D01*
X0090006Y0034574D02*
X0145006Y0034574D01*
X0145006Y0035172D02*
X0090006Y0035172D01*
X0090006Y0035771D02*
X0145006Y0035771D01*
X0145006Y0036369D02*
X0090006Y0036369D01*
X0090006Y0036968D02*
X0145006Y0036968D01*
X0145006Y0037566D02*
X0090006Y0037566D01*
X0090006Y0038165D02*
X0145006Y0038165D01*
X0145006Y0038763D02*
X0090006Y0038763D01*
X0090006Y0039362D02*
X0145006Y0039362D01*
X0145006Y0039960D02*
X0090006Y0039960D01*
X0090006Y0040559D02*
X0145006Y0040559D01*
X0145006Y0041157D02*
X0090006Y0041157D01*
X0090006Y0041756D02*
X0145006Y0041756D01*
X0145006Y0042354D02*
X0090006Y0042354D01*
X0090006Y0042953D02*
X0145006Y0042953D01*
X0145006Y0043551D02*
X0090006Y0043551D01*
X0090006Y0044150D02*
X0145006Y0044150D01*
X0145006Y0044748D02*
X0090006Y0044748D01*
X0090006Y0045347D02*
X0145006Y0045347D01*
X0145006Y0045945D02*
X0090006Y0045945D01*
X0090006Y0046544D02*
X0100089Y0046544D01*
X0100023Y0046561D02*
X0100354Y0046473D01*
X0102215Y0046473D01*
X0102215Y0049463D01*
X0102796Y0049463D01*
X0102796Y0046473D01*
X0104658Y0046473D01*
X0104989Y0046561D01*
X0105285Y0046733D01*
X0105527Y0046975D01*
X0105698Y0047271D01*
X0105787Y0047602D01*
X0105787Y0049463D01*
X0102797Y0049463D01*
X0102797Y0050044D01*
X0105787Y0050044D01*
X0105787Y0051906D01*
X0105698Y0052237D01*
X0105527Y0052533D01*
X0105285Y0052775D01*
X0104989Y0052946D01*
X0104658Y0053035D01*
X0102796Y0053035D01*
X0102796Y0050045D01*
X0102215Y0050045D01*
X0102215Y0053035D01*
X0100354Y0053035D01*
X0100023Y0052946D01*
X0099727Y0052775D01*
X0099485Y0052533D01*
X0099313Y0052237D01*
X0099225Y0051906D01*
X0099225Y0050044D01*
X0102215Y0050044D01*
X0102215Y0049463D01*
X0099225Y0049463D01*
X0099225Y0047602D01*
X0099313Y0047271D01*
X0099485Y0046975D01*
X0099727Y0046733D01*
X0100023Y0046561D01*
X0099388Y0047142D02*
X0090006Y0047142D01*
X0090006Y0047741D02*
X0099225Y0047741D01*
X0099225Y0048339D02*
X0090006Y0048339D01*
X0090006Y0048938D02*
X0099225Y0048938D01*
X0099225Y0050135D02*
X0090006Y0050135D01*
X0090006Y0050733D02*
X0099225Y0050733D01*
X0099225Y0051332D02*
X0090006Y0051332D01*
X0090006Y0051930D02*
X0099231Y0051930D01*
X0099482Y0052529D02*
X0090006Y0052529D01*
X0090006Y0053127D02*
X0145006Y0053127D01*
X0145006Y0052529D02*
X0144280Y0052529D01*
X0144277Y0052533D02*
X0144035Y0052775D01*
X0143739Y0052946D01*
X0143408Y0053035D01*
X0141546Y0053035D01*
X0141546Y0050045D01*
X0140965Y0050045D01*
X0140965Y0053035D01*
X0139104Y0053035D01*
X0138773Y0052946D01*
X0138477Y0052775D01*
X0138235Y0052533D01*
X0138063Y0052237D01*
X0137975Y0051906D01*
X0137975Y0050044D01*
X0140965Y0050044D01*
X0140965Y0049463D01*
X0141546Y0049463D01*
X0141546Y0046473D01*
X0143408Y0046473D01*
X0143739Y0046561D01*
X0144035Y0046733D01*
X0144277Y0046975D01*
X0144448Y0047271D01*
X0144537Y0047602D01*
X0144537Y0049463D01*
X0141547Y0049463D01*
X0141547Y0050044D01*
X0144537Y0050044D01*
X0144537Y0051906D01*
X0144448Y0052237D01*
X0144277Y0052533D01*
X0144531Y0051930D02*
X0145006Y0051930D01*
X0145006Y0051332D02*
X0144537Y0051332D01*
X0144537Y0050733D02*
X0145006Y0050733D01*
X0145006Y0050135D02*
X0144537Y0050135D01*
X0145006Y0049536D02*
X0141547Y0049536D01*
X0140965Y0049536D02*
X0102797Y0049536D01*
X0102215Y0049536D02*
X0090006Y0049536D01*
X0090006Y0053726D02*
X0145006Y0053726D01*
X0145006Y0054324D02*
X0090006Y0054324D01*
X0090006Y0054923D02*
X0145006Y0054923D01*
X0145006Y0055521D02*
X0090006Y0055521D01*
X0090006Y0056120D02*
X0145006Y0056120D01*
X0145006Y0056718D02*
X0090006Y0056718D01*
X0090006Y0057317D02*
X0145006Y0057317D01*
X0145006Y0057915D02*
X0090006Y0057915D01*
X0090006Y0058514D02*
X0145006Y0058514D01*
X0145006Y0059113D02*
X0090006Y0059113D01*
X0090006Y0059711D02*
X0145006Y0059711D01*
X0145006Y0060310D02*
X0090006Y0060310D01*
X0090006Y0060908D02*
X0145006Y0060908D01*
X0145006Y0061507D02*
X0090006Y0061507D01*
X0090006Y0062105D02*
X0145006Y0062105D01*
X0145006Y0062704D02*
X0090006Y0062704D01*
X0090006Y0063302D02*
X0145006Y0063302D01*
X0145006Y0063901D02*
X0090006Y0063901D01*
X0090006Y0064499D02*
X0145006Y0064499D01*
X0145006Y0065098D02*
X0090006Y0065098D01*
X0090006Y0065696D02*
X0145006Y0065696D01*
X0145006Y0066295D02*
X0090006Y0066295D01*
X0090006Y0066893D02*
X0145006Y0066893D01*
X0141546Y0052529D02*
X0140965Y0052529D01*
X0140965Y0051930D02*
X0141546Y0051930D01*
X0141546Y0051332D02*
X0140965Y0051332D01*
X0140965Y0050733D02*
X0141546Y0050733D01*
X0141546Y0050135D02*
X0140965Y0050135D01*
X0140965Y0049463D02*
X0137975Y0049463D01*
X0137975Y0047602D01*
X0138063Y0047271D01*
X0138235Y0046975D01*
X0138477Y0046733D01*
X0138773Y0046561D01*
X0139104Y0046473D01*
X0140965Y0046473D01*
X0140965Y0049463D01*
X0140965Y0048938D02*
X0141546Y0048938D01*
X0141546Y0048339D02*
X0140965Y0048339D01*
X0140965Y0047741D02*
X0141546Y0047741D01*
X0141546Y0047142D02*
X0140965Y0047142D01*
X0140965Y0046544D02*
X0141546Y0046544D01*
X0143673Y0046544D02*
X0145006Y0046544D01*
X0145006Y0047142D02*
X0144374Y0047142D01*
X0144537Y0047741D02*
X0145006Y0047741D01*
X0145006Y0048339D02*
X0144537Y0048339D01*
X0144537Y0048938D02*
X0145006Y0048938D01*
X0138839Y0046544D02*
X0104923Y0046544D01*
X0105624Y0047142D02*
X0138138Y0047142D01*
X0137975Y0047741D02*
X0105787Y0047741D01*
X0105787Y0048339D02*
X0137975Y0048339D01*
X0137975Y0048938D02*
X0105787Y0048938D01*
X0105787Y0050135D02*
X0137975Y0050135D01*
X0137975Y0050733D02*
X0105787Y0050733D01*
X0105787Y0051332D02*
X0137975Y0051332D01*
X0137981Y0051930D02*
X0105781Y0051930D01*
X0105530Y0052529D02*
X0138232Y0052529D01*
X0102796Y0052529D02*
X0102215Y0052529D01*
X0102215Y0051930D02*
X0102796Y0051930D01*
X0102796Y0051332D02*
X0102215Y0051332D01*
X0102215Y0050733D02*
X0102796Y0050733D01*
X0102796Y0050135D02*
X0102215Y0050135D01*
X0102215Y0048938D02*
X0102796Y0048938D01*
X0102796Y0048339D02*
X0102215Y0048339D01*
X0102215Y0047741D02*
X0102796Y0047741D01*
X0102796Y0047142D02*
X0102215Y0047142D01*
X0102215Y0046544D02*
X0102796Y0046544D01*
X0098756Y0067492D02*
X0090006Y0067492D01*
X0090006Y0068090D02*
X0098756Y0068090D01*
X0098756Y0068689D02*
X0090006Y0068689D01*
X0090006Y0069287D02*
X0098756Y0069287D01*
X0098756Y0069886D02*
X0090006Y0069886D01*
X0090006Y0070484D02*
X0098756Y0070484D01*
X0098756Y0071083D02*
X0090006Y0071083D01*
X0090006Y0071681D02*
X0098756Y0071681D01*
X0098756Y0072280D02*
X0090006Y0072280D01*
X0090006Y0072878D02*
X0098756Y0072878D01*
X0098756Y0073477D02*
X0090006Y0073477D01*
X0090006Y0074075D02*
X0098756Y0074075D01*
X0098756Y0074674D02*
X0090006Y0074674D01*
X0090006Y0075272D02*
X0098756Y0075272D01*
X0098756Y0075871D02*
X0090006Y0075871D01*
X0090006Y0076469D02*
X0098756Y0076469D01*
X0098756Y0077068D02*
X0090006Y0077068D01*
X0090006Y0077666D02*
X0098756Y0077666D01*
X0098756Y0078265D02*
X0090006Y0078265D01*
X0090006Y0078863D02*
X0098756Y0078863D01*
X0098756Y0079462D02*
X0090006Y0079462D01*
X0090006Y0080060D02*
X0098756Y0080060D01*
X0098756Y0080659D02*
X0090006Y0080659D01*
X0090006Y0081257D02*
X0098756Y0081257D01*
X0098756Y0081856D02*
X0090006Y0081856D01*
X0090006Y0082454D02*
X0098756Y0082454D01*
X0098756Y0083053D02*
X0090006Y0083053D01*
X0090006Y0083651D02*
X0098756Y0083651D01*
X0098756Y0084250D02*
X0090006Y0084250D01*
X0090006Y0084848D02*
X0098756Y0084848D01*
X0098756Y0085447D02*
X0090006Y0085447D01*
X0090006Y0086046D02*
X0098756Y0086046D01*
X0098756Y0086644D02*
X0090006Y0086644D01*
X0090006Y0087243D02*
X0098756Y0087243D01*
X0098756Y0087841D02*
X0090006Y0087841D01*
X0090006Y0088440D02*
X0098756Y0088440D01*
X0098756Y0089038D02*
X0090006Y0089038D01*
X0090006Y0089637D02*
X0098756Y0089637D01*
X0098756Y0090235D02*
X0090006Y0090235D01*
X0090006Y0090834D02*
X0098756Y0090834D01*
X0098756Y0091432D02*
X0090006Y0091432D01*
X0090006Y0092031D02*
X0098756Y0092031D01*
X0098756Y0092629D02*
X0090006Y0092629D01*
X0090006Y0093228D02*
X0098756Y0093228D01*
X0098756Y0093826D02*
X0090006Y0093826D01*
X0090006Y0094425D02*
X0098756Y0094425D01*
X0098756Y0095023D02*
X0090006Y0095023D01*
X0090006Y0095622D02*
X0098756Y0095622D01*
X0098756Y0096220D02*
X0090006Y0096220D01*
X0090006Y0096819D02*
X0098756Y0096819D01*
X0098756Y0097417D02*
X0090006Y0097417D01*
X0090006Y0098016D02*
X0098756Y0098016D01*
X0098756Y0098614D02*
X0090006Y0098614D01*
X0090006Y0099213D02*
X0098756Y0099213D01*
X0098756Y0099811D02*
X0090006Y0099811D01*
X0090006Y0100410D02*
X0098756Y0100410D01*
X0098756Y0101008D02*
X0090006Y0101008D01*
X0090006Y0101607D02*
X0098756Y0101607D01*
X0098756Y0102205D02*
X0090006Y0102205D01*
X0090006Y0102804D02*
X0098756Y0102804D01*
X0098756Y0103402D02*
X0090006Y0103402D01*
X0090006Y0104001D02*
X0098756Y0104001D01*
X0098756Y0104599D02*
X0090006Y0104599D01*
X0090006Y0105198D02*
X0098756Y0105198D01*
X0098756Y0105796D02*
X0090006Y0105796D01*
X0090006Y0106395D02*
X0098756Y0106395D01*
X0098756Y0106993D02*
X0090006Y0106993D01*
X0090006Y0107592D02*
X0098756Y0107592D01*
X0098756Y0108190D02*
X0090006Y0108190D01*
X0090006Y0108789D02*
X0098756Y0108789D01*
X0098756Y0109387D02*
X0090006Y0109387D01*
X0090006Y0109986D02*
X0098756Y0109986D01*
X0098756Y0110584D02*
X0090006Y0110584D01*
X0090006Y0111183D02*
X0098756Y0111183D01*
X0098756Y0111782D02*
X0090006Y0111782D01*
X0090006Y0112380D02*
X0098756Y0112380D01*
X0098756Y0112979D02*
X0090006Y0112979D01*
X0087326Y0115942D02*
X0087568Y0116184D01*
X0087739Y0116480D01*
X0087828Y0116811D01*
X0087828Y0119454D01*
X0084056Y0119454D01*
X0084056Y0120054D01*
X0087828Y0120054D01*
X0087828Y0122697D01*
X0087739Y0123027D01*
X0087568Y0123324D01*
X0087326Y0123566D01*
X0087029Y0123737D01*
X0086699Y0123826D01*
X0084056Y0123826D01*
X0084056Y0120054D01*
X0083456Y0120054D01*
X0083456Y0123826D01*
X0080813Y0123826D01*
X0080482Y0123737D01*
X0080186Y0123566D01*
X0079944Y0123324D01*
X0079773Y0123027D01*
X0079684Y0122697D01*
X0079684Y0120054D01*
X0083456Y0120054D01*
X0083456Y0119454D01*
X0084056Y0119454D01*
X0084056Y0115682D01*
X0086699Y0115682D01*
X0087029Y0115771D01*
X0087326Y0115942D01*
X0087355Y0115971D02*
X0098756Y0115971D01*
X0098756Y0115373D02*
X0075730Y0115373D01*
X0075598Y0115306D02*
X0076272Y0115649D01*
X0076883Y0116093D01*
X0077417Y0116627D01*
X0077861Y0117238D01*
X0078204Y0117911D01*
X0078438Y0118630D01*
X0078556Y0119376D01*
X0078556Y0119454D01*
X0074056Y0119454D01*
X0074056Y0120054D01*
X0078556Y0120054D01*
X0078556Y0120132D01*
X0078438Y0120878D01*
X0078204Y0121596D01*
X0077861Y0122270D01*
X0077417Y0122881D01*
X0076883Y0123415D01*
X0076272Y0123859D01*
X0075598Y0124202D01*
X0074880Y0124436D01*
X0074134Y0124554D01*
X0074056Y0124554D01*
X0074056Y0120054D01*
X0073456Y0120054D01*
X0073456Y0124554D01*
X0073378Y0124554D01*
X0072632Y0124436D01*
X0071913Y0124202D01*
X0071240Y0123859D01*
X0070629Y0123415D01*
X0070095Y0122881D01*
X0069651Y0122270D01*
X0069308Y0121596D01*
X0069074Y0120878D01*
X0068956Y0120132D01*
X0068956Y0120054D01*
X0073456Y0120054D01*
X0073456Y0119454D01*
X0074056Y0119454D01*
X0074056Y0114954D01*
X0074134Y0114954D01*
X0074880Y0115072D01*
X0075598Y0115306D01*
X0076715Y0115971D02*
X0080157Y0115971D01*
X0080186Y0115942D02*
X0080482Y0115771D01*
X0080813Y0115682D01*
X0083456Y0115682D01*
X0083456Y0119454D01*
X0079684Y0119454D01*
X0079684Y0116811D01*
X0079773Y0116480D01*
X0079944Y0116184D01*
X0080186Y0115942D01*
X0079749Y0116570D02*
X0077360Y0116570D01*
X0077810Y0117168D02*
X0079684Y0117168D01*
X0079684Y0117767D02*
X0078130Y0117767D01*
X0078352Y0118365D02*
X0079684Y0118365D01*
X0079684Y0118964D02*
X0078491Y0118964D01*
X0078551Y0120161D02*
X0079684Y0120161D01*
X0079684Y0120759D02*
X0078457Y0120759D01*
X0078282Y0121358D02*
X0079684Y0121358D01*
X0079684Y0121956D02*
X0078021Y0121956D01*
X0077654Y0122555D02*
X0079684Y0122555D01*
X0079846Y0123153D02*
X0077145Y0123153D01*
X0076420Y0123752D02*
X0080538Y0123752D01*
X0083456Y0123752D02*
X0084056Y0123752D01*
X0084056Y0123153D02*
X0083456Y0123153D01*
X0083456Y0122555D02*
X0084056Y0122555D01*
X0084056Y0121956D02*
X0083456Y0121956D01*
X0083456Y0121358D02*
X0084056Y0121358D01*
X0084056Y0120759D02*
X0083456Y0120759D01*
X0083456Y0120161D02*
X0084056Y0120161D01*
X0084056Y0119562D02*
X0098756Y0119562D01*
X0098756Y0118964D02*
X0087828Y0118964D01*
X0087828Y0118365D02*
X0098756Y0118365D01*
X0098756Y0117767D02*
X0087828Y0117767D01*
X0087828Y0117168D02*
X0098756Y0117168D01*
X0098756Y0116570D02*
X0087763Y0116570D01*
X0087828Y0120161D02*
X0098756Y0120161D01*
X0098756Y0120759D02*
X0087828Y0120759D01*
X0087828Y0121358D02*
X0098756Y0121358D01*
X0098756Y0121956D02*
X0087828Y0121956D01*
X0087828Y0122555D02*
X0098756Y0122555D01*
X0098756Y0123153D02*
X0087666Y0123153D01*
X0086974Y0123752D02*
X0098756Y0123752D01*
X0098756Y0124350D02*
X0075143Y0124350D01*
X0074056Y0124350D02*
X0073456Y0124350D01*
X0073456Y0123752D02*
X0074056Y0123752D01*
X0074056Y0123153D02*
X0073456Y0123153D01*
X0073456Y0122555D02*
X0074056Y0122555D01*
X0074056Y0121956D02*
X0073456Y0121956D01*
X0073456Y0121358D02*
X0074056Y0121358D01*
X0074056Y0120759D02*
X0073456Y0120759D01*
X0073456Y0120161D02*
X0074056Y0120161D01*
X0074056Y0119562D02*
X0083456Y0119562D01*
X0083456Y0118964D02*
X0084056Y0118964D01*
X0084056Y0118365D02*
X0083456Y0118365D01*
X0083456Y0117767D02*
X0084056Y0117767D01*
X0084056Y0117168D02*
X0083456Y0117168D01*
X0083456Y0116570D02*
X0084056Y0116570D01*
X0084056Y0115971D02*
X0083456Y0115971D01*
X0076024Y0113577D02*
X0098756Y0113577D01*
X0098756Y0114176D02*
X0067506Y0114176D01*
X0067506Y0114774D02*
X0098756Y0114774D01*
X0074056Y0115373D02*
X0073456Y0115373D01*
X0073456Y0114954D02*
X0073456Y0119454D01*
X0068956Y0119454D01*
X0068956Y0119376D01*
X0069074Y0118630D01*
X0069308Y0117911D01*
X0069651Y0117238D01*
X0070095Y0116627D01*
X0070629Y0116093D01*
X0071240Y0115649D01*
X0071913Y0115306D01*
X0072632Y0115072D01*
X0073378Y0114954D01*
X0073456Y0114954D01*
X0073456Y0115971D02*
X0074056Y0115971D01*
X0074056Y0116570D02*
X0073456Y0116570D01*
X0073456Y0117168D02*
X0074056Y0117168D01*
X0074056Y0117767D02*
X0073456Y0117767D01*
X0073456Y0118365D02*
X0074056Y0118365D01*
X0074056Y0118964D02*
X0073456Y0118964D01*
X0073456Y0119562D02*
X0067506Y0119562D01*
X0067506Y0118964D02*
X0069021Y0118964D01*
X0069160Y0118365D02*
X0067506Y0118365D01*
X0067506Y0117767D02*
X0069381Y0117767D01*
X0069701Y0117168D02*
X0067506Y0117168D01*
X0067506Y0116570D02*
X0070152Y0116570D01*
X0070796Y0115971D02*
X0067506Y0115971D01*
X0067506Y0115373D02*
X0071782Y0115373D01*
X0071488Y0113577D02*
X0067506Y0113577D01*
X0067506Y0120161D02*
X0068960Y0120161D01*
X0069055Y0120759D02*
X0067506Y0120759D01*
X0067506Y0121358D02*
X0069230Y0121358D01*
X0069491Y0121956D02*
X0067506Y0121956D01*
X0067506Y0122555D02*
X0069858Y0122555D01*
X0070367Y0123153D02*
X0067506Y0123153D01*
X0067506Y0123752D02*
X0071092Y0123752D01*
X0072369Y0124350D02*
X0067506Y0124350D01*
X0052506Y0124350D02*
X0047456Y0124350D01*
X0047456Y0123752D02*
X0052506Y0123752D01*
X0052506Y0123153D02*
X0047456Y0123153D01*
X0047456Y0122555D02*
X0052506Y0122555D01*
X0052506Y0121956D02*
X0047456Y0121956D01*
X0047456Y0121358D02*
X0052506Y0121358D01*
X0052506Y0120759D02*
X0047456Y0120759D01*
X0047456Y0120161D02*
X0052506Y0120161D01*
X0052506Y0119562D02*
X0047456Y0119562D01*
X0047456Y0118964D02*
X0052506Y0118964D01*
X0052506Y0118365D02*
X0047456Y0118365D01*
X0047456Y0117767D02*
X0052506Y0117767D01*
X0052506Y0117168D02*
X0047456Y0117168D01*
X0047456Y0116570D02*
X0052506Y0116570D01*
X0052506Y0115971D02*
X0047456Y0115971D01*
X0047456Y0115373D02*
X0052506Y0115373D01*
X0052506Y0114774D02*
X0047456Y0114774D01*
X0047456Y0114176D02*
X0052506Y0114176D01*
X0052506Y0113577D02*
X0047456Y0113577D01*
X0047456Y0112979D02*
X0052506Y0112979D01*
X0052506Y0112380D02*
X0047456Y0112380D01*
X0047456Y0111782D02*
X0052506Y0111782D01*
X0052506Y0111183D02*
X0047456Y0111183D01*
X0047456Y0110584D02*
X0052506Y0110584D01*
X0052506Y0109986D02*
X0047456Y0109986D01*
X0047456Y0109387D02*
X0052506Y0109387D01*
X0052506Y0108789D02*
X0047456Y0108789D01*
X0047456Y0108190D02*
X0052506Y0108190D01*
X0052506Y0107592D02*
X0047456Y0107592D01*
X0047456Y0106993D02*
X0052506Y0106993D01*
X0052506Y0106395D02*
X0047456Y0106395D01*
X0047456Y0105796D02*
X0052506Y0105796D01*
X0052506Y0105198D02*
X0047456Y0105198D01*
X0047456Y0104599D02*
X0052506Y0104599D01*
X0052506Y0104001D02*
X0047456Y0104001D01*
X0047456Y0103402D02*
X0052506Y0103402D01*
X0052506Y0102804D02*
X0047456Y0102804D01*
X0047456Y0102205D02*
X0052506Y0102205D01*
X0052506Y0101607D02*
X0047456Y0101607D01*
X0047456Y0101008D02*
X0052506Y0101008D01*
X0052506Y0100410D02*
X0047359Y0100410D01*
X0046760Y0099811D02*
X0052506Y0099811D01*
X0052506Y0099213D02*
X0046162Y0099213D01*
X0045563Y0098614D02*
X0052506Y0098614D01*
X0052506Y0098016D02*
X0045511Y0098016D01*
X0045759Y0097417D02*
X0052506Y0097417D01*
X0052506Y0096819D02*
X0045981Y0096819D01*
X0045981Y0096220D02*
X0052506Y0096220D01*
X0052506Y0095622D02*
X0045981Y0095622D01*
X0045783Y0095023D02*
X0052506Y0095023D01*
X0052506Y0094425D02*
X0045535Y0094425D01*
X0045055Y0093826D02*
X0052506Y0093826D01*
X0052506Y0093228D02*
X0044432Y0093228D01*
X0044065Y0091432D02*
X0052506Y0091432D01*
X0052506Y0090834D02*
X0044903Y0090834D01*
X0044474Y0091263D02*
X0043197Y0091792D01*
X0041815Y0091792D01*
X0040538Y0091263D01*
X0039560Y0090285D01*
X0039031Y0089008D01*
X0039031Y0087626D01*
X0039560Y0086349D01*
X0040538Y0085371D01*
X0041815Y0084842D01*
X0043197Y0084842D01*
X0044474Y0085371D01*
X0045452Y0086349D01*
X0045981Y0087626D01*
X0045981Y0089008D01*
X0045452Y0090285D01*
X0044474Y0091263D01*
X0045472Y0090235D02*
X0052506Y0090235D01*
X0052506Y0089637D02*
X0045720Y0089637D01*
X0045968Y0089038D02*
X0052506Y0089038D01*
X0052506Y0088440D02*
X0045981Y0088440D01*
X0045981Y0087841D02*
X0052506Y0087841D01*
X0052506Y0087243D02*
X0045822Y0087243D01*
X0045574Y0086644D02*
X0052506Y0086644D01*
X0052506Y0086046D02*
X0045149Y0086046D01*
X0044550Y0085447D02*
X0052506Y0085447D01*
X0052506Y0084848D02*
X0043212Y0084848D01*
X0043228Y0084250D02*
X0052506Y0084250D01*
X0052506Y0083651D02*
X0044678Y0083651D01*
X0044976Y0083453D02*
X0044341Y0083877D01*
X0043636Y0084169D01*
X0042888Y0084318D01*
X0042806Y0084318D01*
X0042806Y0080743D01*
X0046381Y0080743D01*
X0046381Y0080825D01*
X0046232Y0081573D01*
X0045940Y0082278D01*
X0045516Y0082913D01*
X0044976Y0083453D01*
X0045376Y0083053D02*
X0052506Y0083053D01*
X0052506Y0082454D02*
X0045822Y0082454D01*
X0046115Y0081856D02*
X0052506Y0081856D01*
X0052506Y0081257D02*
X0046295Y0081257D01*
X0046381Y0080143D02*
X0042806Y0080143D01*
X0042806Y0080743D01*
X0042206Y0080743D01*
X0042206Y0084318D01*
X0042124Y0084318D01*
X0041376Y0084169D01*
X0040670Y0083877D01*
X0040036Y0083453D01*
X0039496Y0082913D01*
X0039072Y0082278D01*
X0038780Y0081573D01*
X0038631Y0080825D01*
X0038631Y0080743D01*
X0042206Y0080743D01*
X0042206Y0080143D01*
X0038631Y0080143D01*
X0038631Y0080061D01*
X0038780Y0079313D01*
X0039072Y0078608D01*
X0039496Y0077973D01*
X0040036Y0077433D01*
X0040670Y0077009D01*
X0041376Y0076717D01*
X0042124Y0076568D01*
X0042206Y0076568D01*
X0042206Y0080143D01*
X0042806Y0080143D01*
X0042806Y0076568D01*
X0042888Y0076568D01*
X0043636Y0076717D01*
X0044341Y0077009D01*
X0044976Y0077433D01*
X0045516Y0077973D01*
X0045940Y0078608D01*
X0046232Y0079313D01*
X0046381Y0080061D01*
X0046381Y0080143D01*
X0046381Y0080060D02*
X0052506Y0080060D01*
X0052506Y0079462D02*
X0046261Y0079462D01*
X0046046Y0078863D02*
X0052506Y0078863D01*
X0052506Y0078265D02*
X0045711Y0078265D01*
X0045209Y0077666D02*
X0052506Y0077666D01*
X0052506Y0077068D02*
X0044429Y0077068D01*
X0042806Y0077068D02*
X0042206Y0077068D01*
X0042206Y0077666D02*
X0042806Y0077666D01*
X0042806Y0078265D02*
X0042206Y0078265D01*
X0042206Y0078863D02*
X0042806Y0078863D01*
X0042806Y0079462D02*
X0042206Y0079462D01*
X0042206Y0080060D02*
X0042806Y0080060D01*
X0042806Y0080659D02*
X0052506Y0080659D01*
X0052506Y0076469D02*
X0025006Y0076469D01*
X0025006Y0075871D02*
X0052506Y0075871D01*
X0052506Y0075272D02*
X0025006Y0075272D01*
X0025006Y0074674D02*
X0052506Y0074674D01*
X0052506Y0074075D02*
X0025006Y0074075D01*
X0025006Y0073477D02*
X0052506Y0073477D01*
X0052506Y0072878D02*
X0025006Y0072878D01*
X0025006Y0072280D02*
X0052506Y0072280D01*
X0052506Y0071681D02*
X0025006Y0071681D01*
X0025006Y0071083D02*
X0052506Y0071083D01*
X0052506Y0070484D02*
X0025006Y0070484D01*
X0025006Y0069886D02*
X0052506Y0069886D01*
X0052506Y0069287D02*
X0025006Y0069287D01*
X0025006Y0068689D02*
X0052506Y0068689D01*
X0052506Y0068090D02*
X0025006Y0068090D01*
X0025006Y0067492D02*
X0052506Y0067492D01*
X0052506Y0066893D02*
X0025006Y0066893D01*
X0025006Y0066295D02*
X0052506Y0066295D01*
X0052506Y0065696D02*
X0025006Y0065696D01*
X0025006Y0065098D02*
X0052506Y0065098D01*
X0052506Y0064499D02*
X0025006Y0064499D01*
X0025006Y0063901D02*
X0052506Y0063901D01*
X0052506Y0063302D02*
X0025006Y0063302D01*
X0025006Y0062704D02*
X0052506Y0062704D01*
X0052506Y0062105D02*
X0025006Y0062105D01*
X0025006Y0061507D02*
X0052506Y0061507D01*
X0052506Y0060908D02*
X0025006Y0060908D01*
X0025006Y0060310D02*
X0029434Y0060310D01*
X0029795Y0060494D02*
X0029010Y0060093D01*
X0028297Y0059575D01*
X0027673Y0058952D01*
X0027155Y0058239D01*
X0026755Y0057454D01*
X0026483Y0056615D01*
X0026345Y0055745D01*
X0026345Y0051304D01*
X0031645Y0051304D01*
X0031645Y0060904D01*
X0031504Y0060904D01*
X0030634Y0060766D01*
X0029795Y0060494D01*
X0028483Y0059711D02*
X0025006Y0059711D01*
X0025006Y0059113D02*
X0027834Y0059113D01*
X0027355Y0058514D02*
X0025006Y0058514D01*
X0025006Y0057915D02*
X0026991Y0057915D01*
X0026711Y0057317D02*
X0025006Y0057317D01*
X0025006Y0056718D02*
X0026516Y0056718D01*
X0026404Y0056120D02*
X0025006Y0056120D01*
X0025006Y0055521D02*
X0026345Y0055521D01*
X0026345Y0054923D02*
X0025006Y0054923D01*
X0025006Y0054324D02*
X0026345Y0054324D01*
X0026345Y0053726D02*
X0025006Y0053726D01*
X0025006Y0053127D02*
X0026345Y0053127D01*
X0026345Y0052529D02*
X0025006Y0052529D01*
X0025006Y0051930D02*
X0026345Y0051930D01*
X0026345Y0051332D02*
X0025006Y0051332D01*
X0025006Y0050733D02*
X0031645Y0050733D01*
X0031645Y0050704D02*
X0026345Y0050704D01*
X0026345Y0046263D01*
X0026483Y0045393D01*
X0026755Y0044554D01*
X0027155Y0043769D01*
X0027673Y0043056D01*
X0028297Y0042432D01*
X0029010Y0041914D01*
X0029795Y0041514D01*
X0030634Y0041242D01*
X0031504Y0041104D01*
X0031645Y0041104D01*
X0031645Y0050704D01*
X0032245Y0050704D01*
X0032245Y0051304D01*
X0037545Y0051304D01*
X0037545Y0055745D01*
X0037407Y0056615D01*
X0037135Y0057454D01*
X0036734Y0058239D01*
X0036216Y0058952D01*
X0035593Y0059575D01*
X0034880Y0060093D01*
X0034095Y0060494D01*
X0033256Y0060766D01*
X0032386Y0060904D01*
X0032245Y0060904D01*
X0032245Y0051304D01*
X0031645Y0051304D01*
X0031645Y0050704D01*
X0031645Y0050135D02*
X0032245Y0050135D01*
X0032245Y0050704D02*
X0032245Y0041104D01*
X0032386Y0041104D01*
X0033256Y0041242D01*
X0034095Y0041514D01*
X0034880Y0041914D01*
X0035593Y0042432D01*
X0036216Y0043056D01*
X0036734Y0043769D01*
X0037135Y0044554D01*
X0037407Y0045393D01*
X0037545Y0046263D01*
X0037545Y0050704D01*
X0032245Y0050704D01*
X0032245Y0050733D02*
X0050367Y0050733D01*
X0050367Y0050135D02*
X0037545Y0050135D01*
X0037545Y0049536D02*
X0050367Y0049536D01*
X0050367Y0048938D02*
X0037545Y0048938D01*
X0037545Y0048339D02*
X0050367Y0048339D01*
X0050367Y0047741D02*
X0037545Y0047741D01*
X0037545Y0047142D02*
X0050367Y0047142D01*
X0050367Y0046544D02*
X0037545Y0046544D01*
X0037495Y0045945D02*
X0050367Y0045945D01*
X0050501Y0045347D02*
X0037392Y0045347D01*
X0037198Y0044748D02*
X0050749Y0044748D01*
X0050996Y0044150D02*
X0036928Y0044150D01*
X0036576Y0043551D02*
X0051366Y0043551D01*
X0051964Y0042953D02*
X0036113Y0042953D01*
X0035485Y0042354D02*
X0052506Y0042354D01*
X0052506Y0041756D02*
X0034568Y0041756D01*
X0032722Y0041157D02*
X0052506Y0041157D01*
X0052506Y0040559D02*
X0025006Y0040559D01*
X0025006Y0041157D02*
X0031168Y0041157D01*
X0031645Y0041157D02*
X0032245Y0041157D01*
X0032245Y0041756D02*
X0031645Y0041756D01*
X0031645Y0042354D02*
X0032245Y0042354D01*
X0032245Y0042953D02*
X0031645Y0042953D01*
X0031645Y0043551D02*
X0032245Y0043551D01*
X0032245Y0044150D02*
X0031645Y0044150D01*
X0031645Y0044748D02*
X0032245Y0044748D01*
X0032245Y0045347D02*
X0031645Y0045347D01*
X0031645Y0045945D02*
X0032245Y0045945D01*
X0032245Y0046544D02*
X0031645Y0046544D01*
X0031645Y0047142D02*
X0032245Y0047142D01*
X0032245Y0047741D02*
X0031645Y0047741D01*
X0031645Y0048339D02*
X0032245Y0048339D01*
X0032245Y0048938D02*
X0031645Y0048938D01*
X0031645Y0049536D02*
X0032245Y0049536D01*
X0032245Y0051332D02*
X0031645Y0051332D01*
X0031645Y0051930D02*
X0032245Y0051930D01*
X0032245Y0052529D02*
X0031645Y0052529D01*
X0031645Y0053127D02*
X0032245Y0053127D01*
X0032245Y0053726D02*
X0031645Y0053726D01*
X0031645Y0054324D02*
X0032245Y0054324D01*
X0032245Y0054923D02*
X0031645Y0054923D01*
X0031645Y0055521D02*
X0032245Y0055521D01*
X0032245Y0056120D02*
X0031645Y0056120D01*
X0031645Y0056718D02*
X0032245Y0056718D01*
X0032245Y0057317D02*
X0031645Y0057317D01*
X0031645Y0057915D02*
X0032245Y0057915D01*
X0032245Y0058514D02*
X0031645Y0058514D01*
X0031645Y0059113D02*
X0032245Y0059113D01*
X0032245Y0059711D02*
X0031645Y0059711D01*
X0031645Y0060310D02*
X0032245Y0060310D01*
X0034456Y0060310D02*
X0052506Y0060310D01*
X0052506Y0059711D02*
X0035406Y0059711D01*
X0036056Y0059113D02*
X0052022Y0059113D01*
X0051423Y0058514D02*
X0036535Y0058514D01*
X0036899Y0057915D02*
X0051020Y0057915D01*
X0050772Y0057317D02*
X0037179Y0057317D01*
X0037373Y0056718D02*
X0050524Y0056718D01*
X0050367Y0056120D02*
X0037485Y0056120D01*
X0037545Y0055521D02*
X0050367Y0055521D01*
X0050367Y0054923D02*
X0037545Y0054923D01*
X0037545Y0054324D02*
X0050367Y0054324D01*
X0050367Y0053726D02*
X0037545Y0053726D01*
X0037545Y0053127D02*
X0050367Y0053127D01*
X0050367Y0052529D02*
X0037545Y0052529D01*
X0037545Y0051930D02*
X0050367Y0051930D01*
X0050367Y0051332D02*
X0037545Y0051332D01*
X0026345Y0050135D02*
X0025006Y0050135D01*
X0025006Y0049536D02*
X0026345Y0049536D01*
X0026345Y0048938D02*
X0025006Y0048938D01*
X0025006Y0048339D02*
X0026345Y0048339D01*
X0026345Y0047741D02*
X0025006Y0047741D01*
X0025006Y0047142D02*
X0026345Y0047142D01*
X0026345Y0046544D02*
X0025006Y0046544D01*
X0025006Y0045945D02*
X0026395Y0045945D01*
X0026498Y0045347D02*
X0025006Y0045347D01*
X0025006Y0044748D02*
X0026692Y0044748D01*
X0026961Y0044150D02*
X0025006Y0044150D01*
X0025006Y0043551D02*
X0027313Y0043551D01*
X0027777Y0042953D02*
X0025006Y0042953D01*
X0025006Y0042354D02*
X0028404Y0042354D01*
X0029321Y0041756D02*
X0025006Y0041756D01*
X0025006Y0039960D02*
X0052506Y0039960D01*
X0052506Y0039362D02*
X0025006Y0039362D01*
X0025006Y0038763D02*
X0052506Y0038763D01*
X0052506Y0038165D02*
X0025006Y0038165D01*
X0025006Y0037566D02*
X0038138Y0037566D01*
X0036662Y0036968D02*
X0025006Y0036968D01*
X0025006Y0036369D02*
X0035799Y0036369D01*
X0035201Y0035771D02*
X0025006Y0035771D01*
X0025006Y0035172D02*
X0034761Y0035172D01*
X0034428Y0034574D02*
X0025006Y0034574D01*
X0025006Y0033975D02*
X0034175Y0033975D01*
X0033987Y0033377D02*
X0025006Y0033377D01*
X0025006Y0032778D02*
X0033892Y0032778D01*
X0033869Y0031581D02*
X0025006Y0031581D01*
X0025006Y0032180D02*
X0043456Y0032180D01*
X0043456Y0032778D02*
X0044056Y0032778D01*
X0044056Y0033377D02*
X0043456Y0033377D01*
X0043456Y0033975D02*
X0044056Y0033975D01*
X0044056Y0034574D02*
X0043456Y0034574D01*
X0043456Y0035172D02*
X0044056Y0035172D01*
X0044056Y0035771D02*
X0043456Y0035771D01*
X0043456Y0036369D02*
X0044056Y0036369D01*
X0044056Y0036968D02*
X0043456Y0036968D01*
X0043456Y0037566D02*
X0044056Y0037566D01*
X0049374Y0037566D02*
X0052506Y0037566D01*
X0052506Y0036968D02*
X0050850Y0036968D01*
X0051713Y0036369D02*
X0052506Y0036369D01*
X0052506Y0035771D02*
X0052311Y0035771D01*
X0044056Y0031581D02*
X0043456Y0031581D01*
X0043456Y0030982D02*
X0044056Y0030982D01*
X0044056Y0030384D02*
X0043456Y0030384D01*
X0043456Y0029785D02*
X0044056Y0029785D01*
X0044056Y0029187D02*
X0043456Y0029187D01*
X0043456Y0028588D02*
X0044056Y0028588D01*
X0044056Y0027990D02*
X0043456Y0027990D01*
X0043456Y0027391D02*
X0044056Y0027391D01*
X0044056Y0026793D02*
X0043456Y0026793D01*
X0049825Y0026793D02*
X0052506Y0026793D01*
X0052506Y0027391D02*
X0051094Y0027391D01*
X0051859Y0027990D02*
X0052506Y0027990D01*
X0052506Y0028588D02*
X0052422Y0028588D01*
X0052506Y0026194D02*
X0025006Y0026194D01*
X0025006Y0025596D02*
X0052506Y0025596D01*
X0052506Y0024997D02*
X0025006Y0024997D01*
X0025006Y0024399D02*
X0052506Y0024399D01*
X0052506Y0023800D02*
X0025006Y0023800D01*
X0025006Y0023202D02*
X0052506Y0023202D01*
X0052506Y0022603D02*
X0025006Y0022603D01*
X0025006Y0022005D02*
X0052506Y0022005D01*
X0052506Y0021406D02*
X0025006Y0021406D01*
X0025006Y0020808D02*
X0052506Y0020808D01*
X0052506Y0020209D02*
X0025006Y0020209D01*
X0025006Y0019611D02*
X0052506Y0019611D01*
X0052506Y0019012D02*
X0025006Y0019012D01*
X0025006Y0018414D02*
X0052506Y0018414D01*
X0052506Y0017815D02*
X0025006Y0017815D01*
X0025006Y0017217D02*
X0052506Y0017217D01*
X0052506Y0016618D02*
X0025006Y0016618D01*
X0025006Y0016020D02*
X0052506Y0016020D01*
X0052506Y0015421D02*
X0025006Y0015421D01*
X0025006Y0014823D02*
X0052506Y0014823D01*
X0052506Y0014224D02*
X0025006Y0014224D01*
X0025006Y0013626D02*
X0052506Y0013626D01*
X0052506Y0013027D02*
X0025006Y0013027D01*
X0025006Y0012429D02*
X0052506Y0012429D01*
X0037687Y0026793D02*
X0025006Y0026793D01*
X0025006Y0027391D02*
X0036418Y0027391D01*
X0035653Y0027990D02*
X0025006Y0027990D01*
X0025006Y0028588D02*
X0035090Y0028588D01*
X0034658Y0029187D02*
X0025006Y0029187D01*
X0025006Y0029785D02*
X0034353Y0029785D01*
X0034127Y0030384D02*
X0025006Y0030384D01*
X0025006Y0030982D02*
X0033964Y0030982D01*
X0040583Y0077068D02*
X0025006Y0077068D01*
X0025006Y0077666D02*
X0039803Y0077666D01*
X0039301Y0078265D02*
X0025006Y0078265D01*
X0025006Y0078863D02*
X0038966Y0078863D01*
X0038750Y0079462D02*
X0025006Y0079462D01*
X0025006Y0080060D02*
X0038631Y0080060D01*
X0038717Y0081257D02*
X0025006Y0081257D01*
X0025006Y0080659D02*
X0042206Y0080659D01*
X0042206Y0081257D02*
X0042806Y0081257D01*
X0042806Y0081856D02*
X0042206Y0081856D01*
X0042206Y0082454D02*
X0042806Y0082454D01*
X0042806Y0083053D02*
X0042206Y0083053D01*
X0042206Y0083651D02*
X0042806Y0083651D01*
X0042806Y0084250D02*
X0042206Y0084250D01*
X0041784Y0084250D02*
X0025006Y0084250D01*
X0025006Y0084848D02*
X0041799Y0084848D01*
X0040462Y0085447D02*
X0025006Y0085447D01*
X0025006Y0086046D02*
X0039863Y0086046D01*
X0039438Y0086644D02*
X0025006Y0086644D01*
X0025006Y0087243D02*
X0039190Y0087243D01*
X0039031Y0087841D02*
X0025006Y0087841D01*
X0025006Y0088440D02*
X0039031Y0088440D01*
X0039044Y0089038D02*
X0025006Y0089038D01*
X0025006Y0089637D02*
X0039291Y0089637D01*
X0039539Y0090235D02*
X0025006Y0090235D01*
X0025006Y0090834D02*
X0040108Y0090834D01*
X0040947Y0091432D02*
X0025006Y0091432D01*
X0025006Y0092031D02*
X0052506Y0092031D01*
X0052506Y0092629D02*
X0025006Y0092629D01*
X0025006Y0093228D02*
X0040580Y0093228D01*
X0039957Y0093826D02*
X0025006Y0093826D01*
X0025006Y0094425D02*
X0039476Y0094425D01*
X0039228Y0095023D02*
X0025006Y0095023D01*
X0025006Y0095622D02*
X0039031Y0095622D01*
X0039031Y0096220D02*
X0025006Y0096220D01*
X0025006Y0096819D02*
X0039031Y0096819D01*
X0039253Y0097417D02*
X0025006Y0097417D01*
X0025006Y0098016D02*
X0039501Y0098016D01*
X0040015Y0098614D02*
X0025006Y0098614D01*
X0025006Y0099213D02*
X0040721Y0099213D01*
X0039140Y0101008D02*
X0025006Y0101008D01*
X0025006Y0100410D02*
X0043965Y0100410D01*
X0043366Y0099811D02*
X0025006Y0099811D01*
X0025006Y0101607D02*
X0039031Y0101607D01*
X0039031Y0102205D02*
X0025006Y0102205D01*
X0025006Y0102804D02*
X0039031Y0102804D01*
X0039031Y0103402D02*
X0025006Y0103402D01*
X0025006Y0104001D02*
X0039031Y0104001D01*
X0039031Y0104599D02*
X0025006Y0104599D01*
X0025006Y0105198D02*
X0039031Y0105198D01*
X0039031Y0105796D02*
X0025006Y0105796D01*
X0025006Y0106395D02*
X0039031Y0106395D01*
X0039031Y0106993D02*
X0025006Y0106993D01*
X0025006Y0107592D02*
X0045056Y0107592D01*
X0045056Y0108190D02*
X0025006Y0108190D01*
X0025006Y0108789D02*
X0045056Y0108789D01*
X0045056Y0109387D02*
X0025006Y0109387D01*
X0025006Y0109986D02*
X0045056Y0109986D01*
X0045056Y0110584D02*
X0025006Y0110584D01*
X0025006Y0111183D02*
X0045056Y0111183D01*
X0045056Y0111782D02*
X0025006Y0111782D01*
X0025006Y0112380D02*
X0045056Y0112380D01*
X0045056Y0112979D02*
X0025006Y0112979D01*
X0025006Y0113577D02*
X0045056Y0113577D01*
X0045056Y0114176D02*
X0025006Y0114176D01*
X0025006Y0114774D02*
X0045056Y0114774D01*
X0045056Y0115373D02*
X0025006Y0115373D01*
X0025006Y0115971D02*
X0045056Y0115971D01*
X0045056Y0116570D02*
X0025006Y0116570D01*
X0025006Y0117168D02*
X0045056Y0117168D01*
X0045056Y0117767D02*
X0025006Y0117767D01*
X0025006Y0118365D02*
X0045056Y0118365D01*
X0045056Y0118964D02*
X0025006Y0118964D01*
X0025006Y0119562D02*
X0045056Y0119562D01*
X0045056Y0120161D02*
X0025006Y0120161D01*
X0025006Y0120759D02*
X0045056Y0120759D01*
X0045056Y0121358D02*
X0025006Y0121358D01*
X0025006Y0121956D02*
X0040798Y0121956D01*
X0039914Y0122555D02*
X0025006Y0122555D01*
X0025006Y0123153D02*
X0039376Y0123153D01*
X0039012Y0123752D02*
X0025006Y0123752D01*
X0025006Y0124350D02*
X0038773Y0124350D01*
X0038653Y0124949D02*
X0025006Y0124949D01*
X0025006Y0125547D02*
X0042206Y0125547D01*
X0042206Y0124949D02*
X0042806Y0124949D01*
X0042806Y0124350D02*
X0042206Y0124350D01*
X0042206Y0123752D02*
X0042806Y0123752D01*
X0042806Y0123153D02*
X0042206Y0123153D01*
X0042206Y0122555D02*
X0042806Y0122555D01*
X0042806Y0121956D02*
X0042206Y0121956D01*
X0044214Y0121956D02*
X0045056Y0121956D01*
X0047456Y0124949D02*
X0052506Y0124949D01*
X0052506Y0125547D02*
X0047456Y0125547D01*
X0047456Y0126146D02*
X0052506Y0126146D01*
X0052506Y0126744D02*
X0047456Y0126744D01*
X0047456Y0127343D02*
X0052506Y0127343D01*
X0052506Y0127941D02*
X0047266Y0127941D01*
X0046667Y0128540D02*
X0052506Y0128540D01*
X0052506Y0129138D02*
X0046069Y0129138D01*
X0045470Y0129737D02*
X0052506Y0129737D01*
X0052506Y0130335D02*
X0044872Y0130335D01*
X0045037Y0130934D02*
X0052506Y0130934D01*
X0046256Y0127254D02*
X0043756Y0129754D01*
X0040006Y0129754D01*
X0038756Y0131004D01*
X0038756Y0143504D01*
X0040006Y0144754D01*
X0118756Y0144754D01*
X0173756Y0089754D01*
X0052506Y0146495D02*
X0045981Y0146495D01*
X0045981Y0147094D02*
X0052506Y0147094D01*
X0052506Y0147692D02*
X0045981Y0147692D01*
X0045981Y0148291D02*
X0052506Y0148291D01*
X0052506Y0148889D02*
X0045981Y0148889D01*
X0045981Y0149488D02*
X0052506Y0149488D01*
X0052506Y0150086D02*
X0045981Y0150086D01*
X0045981Y0150685D02*
X0052506Y0150685D01*
X0052506Y0151283D02*
X0045981Y0151283D01*
X0045981Y0151882D02*
X0052506Y0151882D01*
X0052506Y0152480D02*
X0045513Y0152480D01*
X0039499Y0152480D02*
X0025006Y0152480D01*
X0025006Y0151882D02*
X0039031Y0151882D01*
X0039031Y0151283D02*
X0025006Y0151283D01*
X0025006Y0150685D02*
X0039031Y0150685D01*
X0039031Y0150086D02*
X0025006Y0150086D01*
X0025006Y0149488D02*
X0039031Y0149488D01*
X0039031Y0148889D02*
X0025006Y0148889D01*
X0025006Y0148291D02*
X0039031Y0148291D01*
X0039031Y0147692D02*
X0025006Y0147692D01*
X0025006Y0147094D02*
X0039031Y0147094D01*
X0039031Y0146495D02*
X0025006Y0146495D01*
X0025006Y0145897D02*
X0039252Y0145897D01*
X0038853Y0145298D02*
X0025006Y0145298D01*
X0025006Y0144700D02*
X0038255Y0144700D01*
X0037656Y0144101D02*
X0025006Y0144101D01*
X0025006Y0143503D02*
X0037556Y0143503D01*
X0037556Y0142904D02*
X0025006Y0142904D01*
X0025006Y0142306D02*
X0037556Y0142306D01*
X0037556Y0141707D02*
X0025006Y0141707D01*
X0025006Y0141109D02*
X0037556Y0141109D01*
X0037556Y0140510D02*
X0025006Y0140510D01*
X0025006Y0139912D02*
X0037556Y0139912D01*
X0037556Y0139313D02*
X0025006Y0139313D01*
X0025006Y0138715D02*
X0037556Y0138715D01*
X0037556Y0138116D02*
X0025006Y0138116D01*
X0025006Y0137517D02*
X0037556Y0137517D01*
X0037556Y0136919D02*
X0025006Y0136919D01*
X0025006Y0136320D02*
X0037556Y0136320D01*
X0037556Y0135722D02*
X0025006Y0135722D01*
X0025006Y0135123D02*
X0037556Y0135123D01*
X0037556Y0134525D02*
X0025006Y0134525D01*
X0025006Y0133926D02*
X0037556Y0133926D01*
X0037556Y0133328D02*
X0025006Y0133328D01*
X0025006Y0132729D02*
X0037556Y0132729D01*
X0037556Y0132131D02*
X0025006Y0132131D01*
X0025006Y0131532D02*
X0037556Y0131532D01*
X0037556Y0130934D02*
X0025006Y0130934D01*
X0025006Y0130335D02*
X0037727Y0130335D01*
X0038326Y0129737D02*
X0025006Y0129737D01*
X0025006Y0129138D02*
X0038924Y0129138D01*
X0039525Y0127941D02*
X0025006Y0127941D01*
X0025006Y0127343D02*
X0039115Y0127343D01*
X0038851Y0126744D02*
X0025006Y0126744D01*
X0025006Y0126146D02*
X0038695Y0126146D01*
X0040166Y0128540D02*
X0025006Y0128540D01*
X0046256Y0127254D02*
X0046256Y0101004D01*
X0042506Y0097254D01*
X0042506Y0096191D01*
X0040333Y0083651D02*
X0025006Y0083651D01*
X0025006Y0083053D02*
X0039636Y0083053D01*
X0039190Y0082454D02*
X0025006Y0082454D01*
X0025006Y0081856D02*
X0038897Y0081856D01*
X0052506Y0153079D02*
X0025006Y0153079D01*
X0025006Y0153677D02*
X0052506Y0153677D01*
X0052506Y0154276D02*
X0025006Y0154276D01*
X0025006Y0154874D02*
X0052506Y0154874D01*
X0052506Y0155473D02*
X0025006Y0155473D01*
X0025006Y0156071D02*
X0052506Y0156071D01*
X0052506Y0156670D02*
X0025006Y0156670D01*
X0025006Y0157268D02*
X0052506Y0157268D01*
X0052506Y0157867D02*
X0025006Y0157867D01*
X0025006Y0158465D02*
X0052506Y0158465D01*
X0052506Y0159064D02*
X0025006Y0159064D01*
X0025006Y0159662D02*
X0052506Y0159662D01*
X0052506Y0160261D02*
X0025006Y0160261D01*
X0025006Y0160859D02*
X0052506Y0160859D01*
X0052506Y0161458D02*
X0025006Y0161458D01*
X0025006Y0162056D02*
X0052506Y0162056D01*
X0052506Y0162655D02*
X0025006Y0162655D01*
X0025006Y0163253D02*
X0052506Y0163253D01*
X0052506Y0163852D02*
X0025006Y0163852D01*
X0025006Y0164451D02*
X0052506Y0164451D01*
X0052506Y0165049D02*
X0025006Y0165049D01*
X0025006Y0165648D02*
X0052506Y0165648D01*
X0052506Y0166246D02*
X0025006Y0166246D01*
X0025006Y0166845D02*
X0041068Y0166845D01*
X0042206Y0166845D02*
X0042806Y0166845D01*
X0042806Y0166568D02*
X0042888Y0166568D01*
X0043636Y0166717D01*
X0044341Y0167009D01*
X0044976Y0167433D01*
X0045516Y0167973D01*
X0045940Y0168608D01*
X0046232Y0169313D01*
X0046381Y0170061D01*
X0046381Y0170143D01*
X0042806Y0170143D01*
X0042806Y0166568D01*
X0042806Y0167443D02*
X0042206Y0167443D01*
X0042206Y0168042D02*
X0042806Y0168042D01*
X0042806Y0168640D02*
X0042206Y0168640D01*
X0042206Y0169239D02*
X0042806Y0169239D01*
X0042806Y0169837D02*
X0042206Y0169837D01*
X0042206Y0170436D02*
X0025006Y0170436D01*
X0025006Y0171034D02*
X0038673Y0171034D01*
X0038805Y0171633D02*
X0025006Y0171633D01*
X0025006Y0172231D02*
X0039053Y0172231D01*
X0039441Y0172830D02*
X0025006Y0172830D01*
X0025006Y0173428D02*
X0040011Y0173428D01*
X0038676Y0169837D02*
X0025006Y0169837D01*
X0025006Y0169239D02*
X0038811Y0169239D01*
X0039059Y0168640D02*
X0025006Y0168640D01*
X0025006Y0168042D02*
X0039450Y0168042D01*
X0040026Y0167443D02*
X0025006Y0167443D01*
X0025006Y0182406D02*
X0052506Y0182406D01*
X0052506Y0179413D02*
X0049544Y0179413D01*
X0050142Y0178815D02*
X0052506Y0178815D01*
X0052506Y0178216D02*
X0050741Y0178216D01*
X0051339Y0177618D02*
X0052506Y0177618D01*
X0052506Y0177019D02*
X0051938Y0177019D01*
X0052506Y0169837D02*
X0046336Y0169837D01*
X0046201Y0169239D02*
X0052506Y0169239D01*
X0052506Y0168640D02*
X0045953Y0168640D01*
X0045562Y0168042D02*
X0052506Y0168042D01*
X0052506Y0167443D02*
X0044986Y0167443D01*
X0043944Y0166845D02*
X0052506Y0166845D01*
X0041119Y0183004D02*
X0025006Y0183004D01*
X0025006Y0183603D02*
X0040180Y0183603D01*
X0039581Y0184201D02*
X0025006Y0184201D01*
X0025006Y0184800D02*
X0039321Y0184800D01*
X0039073Y0185398D02*
X0025006Y0185398D01*
X0025006Y0185997D02*
X0039031Y0185997D01*
X0039031Y0186595D02*
X0025006Y0186595D01*
X0025006Y0187194D02*
X0039160Y0187194D01*
X0039408Y0187792D02*
X0025006Y0187792D01*
X0025006Y0188391D02*
X0039792Y0188391D01*
X0040390Y0188989D02*
X0025006Y0188989D01*
X0025006Y0190785D02*
X0039363Y0190785D01*
X0039031Y0191384D02*
X0025006Y0191384D01*
X0025006Y0191982D02*
X0039031Y0191982D01*
X0039031Y0192581D02*
X0025006Y0192581D01*
X0025006Y0193179D02*
X0039031Y0193179D01*
X0039031Y0193778D02*
X0025006Y0193778D01*
X0025006Y0194376D02*
X0039031Y0194376D01*
X0039031Y0194975D02*
X0025006Y0194975D01*
X0025006Y0195573D02*
X0039031Y0195573D01*
X0039031Y0196172D02*
X0025006Y0196172D01*
X0025006Y0196770D02*
X0039031Y0196770D01*
X0039387Y0197369D02*
X0025006Y0197369D01*
X0042206Y0216521D02*
X0042806Y0216521D01*
X0042806Y0217120D02*
X0042206Y0217120D01*
X0042206Y0217718D02*
X0042806Y0217718D01*
X0042806Y0218317D02*
X0042206Y0218317D01*
X0042206Y0218915D02*
X0042806Y0218915D01*
D20*
X0206256Y0179754D02*
X0206256Y0008504D01*
X0141256Y0008504D01*
X0213028Y0179557D02*
X0213028Y0179754D01*
X0220006Y0179557D02*
X0220006Y0206004D01*
X0327506Y0206004D01*
X0346256Y0224754D01*
X0346256Y0231004D01*
X0350006Y0234754D01*
D21*
X0148756Y0194754D03*
M02*
