%
M48
M72
T01C0.01969
T02C0.02362
T03C0.03150
T04C0.03543
T05C0.03937
T06C0.04000
T07C0.07874
T08C0.12598
%
T01
X213028Y150030
X213028Y154951
X213028Y159872
X213028Y164793
X213028Y169715
X213028Y174636
X213028Y179557
X213028Y184478
X148756Y194754
T02
X103756Y204754
X102506Y49754
X141256Y49754
X350006Y234754
T03
X43756Y32106
X31945Y51004
X42506Y80443
X42506Y88317
X42506Y96191
X42506Y104065
X42506Y125443
X42506Y133317
X42506Y141191
X42506Y149065
X42506Y170443
X42506Y178317
X42506Y186191
X42506Y194065
X42506Y215443
X42506Y223317
X42506Y231191
X42506Y239065
T04
X83756Y219754
X83756Y209754
X83756Y199754
X83756Y189754
X83756Y179754
X83756Y169754
X83756Y159754
X83756Y149754
X83756Y139754
X83756Y129754
X83756Y119754
X83756Y109754
X83756Y99754
X83756Y89754
X83756Y79754
X83756Y69754
X83756Y59754
X83756Y49754
X83756Y39754
X83756Y29754
X173756Y29754
X173756Y39754
X173756Y49754
X173756Y59754
X173756Y69754
X173756Y79754
X173756Y89754
X173756Y99754
X173756Y109754
X173756Y119754
X173756Y129754
X173756Y139754
X173756Y149754
X173756Y159754
X173756Y169754
X173756Y179754
X173756Y189754
X173756Y199754
X173756Y209754
X173756Y219754
T05
X55567Y51004
T06
X73756Y49754
X73756Y59754
X73756Y69754
X73756Y79754
X73756Y89754
X73756Y99754
X73756Y109754
X73756Y119754
X73756Y129754
X73756Y139754
X73756Y149754
X73756Y159754
X73756Y169754
X73756Y179754
X73756Y189754
X73756Y199754
X73756Y209754
X73756Y219754
X183756Y219754
X183756Y209754
X183756Y199754
X183756Y189754
X183756Y179754
X183756Y169754
X183756Y159754
X183756Y149754
X183756Y139754
X183756Y129754
X183756Y119754
X183756Y109754
X183756Y99754
X183756Y89754
X183756Y79754
X183756Y69754
X183756Y59754
X183756Y49754
X183756Y39754
X183756Y29754
X73756Y29754
X73756Y39754
X210006Y206004
X220006Y206004
X220006Y216004
X210006Y216004
X210006Y226004
X220006Y226004
T07
X246177Y220512
X355232Y43346
T08
X16256Y17254
X16256Y254754
X351256Y254754
X351256Y17254
M30
